G04 #@! TF.GenerationSoftware,KiCad,Pcbnew,5.1.4*
G04 #@! TF.CreationDate,2019-09-02T21:27:03+02:00*
G04 #@! TF.ProjectId,LORA_ATTINY84,4c4f5241-5f41-4545-9449-4e5938342e6b,rev?*
G04 #@! TF.SameCoordinates,Original*
G04 #@! TF.FileFunction,Copper,L2,Bot*
G04 #@! TF.FilePolarity,Positive*
%FSLAX46Y46*%
G04 Gerber Fmt 4.6, Leading zero omitted, Abs format (unit mm)*
G04 Created by KiCad (PCBNEW 5.1.4) date 2019-09-02 21:27:03*
%MOMM*%
%LPD*%
G04 APERTURE LIST*
%ADD10R,1.700000X1.700000*%
%ADD11O,1.700000X1.700000*%
%ADD12O,1.600000X1.600000*%
%ADD13R,1.600000X1.600000*%
%ADD14C,0.800000*%
%ADD15C,0.250000*%
%ADD16C,0.254000*%
G04 APERTURE END LIST*
D10*
X89535000Y-48895000D03*
D11*
X89535000Y-51435000D03*
X89535000Y-53975000D03*
X89535000Y-56515000D03*
X89535000Y-59055000D03*
X89535000Y-61595000D03*
X89535000Y-64135000D03*
X89535000Y-66675000D03*
D12*
X84455000Y-53975000D03*
X69215000Y-46355000D03*
X81915000Y-53975000D03*
X71755000Y-46355000D03*
X79375000Y-53975000D03*
X74295000Y-46355000D03*
X76835000Y-53975000D03*
X76835000Y-46355000D03*
X74295000Y-53975000D03*
X79375000Y-46355000D03*
X71755000Y-53975000D03*
X81915000Y-46355000D03*
X69215000Y-53975000D03*
D13*
X84455000Y-46355000D03*
D10*
X89535000Y-73279000D03*
D14*
X69850000Y-59690000D03*
X69850000Y-73660000D03*
X83185000Y-71755000D03*
X56515000Y-52705000D03*
X74295000Y-48895000D03*
X81915000Y-48895000D03*
X71755000Y-50165000D03*
X81915000Y-50165000D03*
X81915000Y-60960000D03*
D15*
X74295000Y-48895000D02*
X81915000Y-48895000D01*
X71755000Y-50165000D02*
X81915000Y-50165000D01*
X82714999Y-47154999D02*
X81915000Y-46355000D01*
X83040001Y-47480001D02*
X82714999Y-47154999D01*
X83040001Y-54515001D02*
X83040001Y-47480001D01*
X81915000Y-55640002D02*
X83040001Y-54515001D01*
X81915000Y-60960000D02*
X81915000Y-55640002D01*
D16*
G36*
X91313000Y-77978000D02*
G01*
X46482000Y-77978000D01*
X46482000Y-72429000D01*
X88046928Y-72429000D01*
X88046928Y-74129000D01*
X88059188Y-74253482D01*
X88095498Y-74373180D01*
X88154463Y-74483494D01*
X88233815Y-74580185D01*
X88330506Y-74659537D01*
X88440820Y-74718502D01*
X88560518Y-74754812D01*
X88685000Y-74767072D01*
X90385000Y-74767072D01*
X90509482Y-74754812D01*
X90629180Y-74718502D01*
X90739494Y-74659537D01*
X90836185Y-74580185D01*
X90915537Y-74483494D01*
X90974502Y-74373180D01*
X91010812Y-74253482D01*
X91023072Y-74129000D01*
X91023072Y-72429000D01*
X91010812Y-72304518D01*
X90974502Y-72184820D01*
X90915537Y-72074506D01*
X90836185Y-71977815D01*
X90739494Y-71898463D01*
X90629180Y-71839498D01*
X90509482Y-71803188D01*
X90385000Y-71790928D01*
X88685000Y-71790928D01*
X88560518Y-71803188D01*
X88440820Y-71839498D01*
X88330506Y-71898463D01*
X88233815Y-71977815D01*
X88154463Y-72074506D01*
X88095498Y-72184820D01*
X88059188Y-72304518D01*
X88046928Y-72429000D01*
X46482000Y-72429000D01*
X46482000Y-66675000D01*
X88042815Y-66675000D01*
X88071487Y-66966111D01*
X88156401Y-67246034D01*
X88294294Y-67504014D01*
X88479866Y-67730134D01*
X88705986Y-67915706D01*
X88963966Y-68053599D01*
X89243889Y-68138513D01*
X89462050Y-68160000D01*
X89607950Y-68160000D01*
X89826111Y-68138513D01*
X90106034Y-68053599D01*
X90364014Y-67915706D01*
X90590134Y-67730134D01*
X90775706Y-67504014D01*
X90913599Y-67246034D01*
X90998513Y-66966111D01*
X91027185Y-66675000D01*
X90998513Y-66383889D01*
X90913599Y-66103966D01*
X90775706Y-65845986D01*
X90590134Y-65619866D01*
X90364014Y-65434294D01*
X90299477Y-65399799D01*
X90416355Y-65330178D01*
X90632588Y-65135269D01*
X90806641Y-64901920D01*
X90931825Y-64639099D01*
X90976476Y-64491890D01*
X90855155Y-64262000D01*
X89662000Y-64262000D01*
X89662000Y-64282000D01*
X89408000Y-64282000D01*
X89408000Y-64262000D01*
X88214845Y-64262000D01*
X88093524Y-64491890D01*
X88138175Y-64639099D01*
X88263359Y-64901920D01*
X88437412Y-65135269D01*
X88653645Y-65330178D01*
X88770523Y-65399799D01*
X88705986Y-65434294D01*
X88479866Y-65619866D01*
X88294294Y-65845986D01*
X88156401Y-66103966D01*
X88071487Y-66383889D01*
X88042815Y-66675000D01*
X46482000Y-66675000D01*
X46482000Y-46355000D01*
X67773057Y-46355000D01*
X67800764Y-46636309D01*
X67882818Y-46906808D01*
X68016068Y-47156101D01*
X68195392Y-47374608D01*
X68413899Y-47553932D01*
X68663192Y-47687182D01*
X68933691Y-47769236D01*
X69144508Y-47790000D01*
X69285492Y-47790000D01*
X69496309Y-47769236D01*
X69766808Y-47687182D01*
X70016101Y-47553932D01*
X70234608Y-47374608D01*
X70413932Y-47156101D01*
X70485000Y-47023142D01*
X70556068Y-47156101D01*
X70735392Y-47374608D01*
X70953899Y-47553932D01*
X71203192Y-47687182D01*
X71473691Y-47769236D01*
X71684508Y-47790000D01*
X71825492Y-47790000D01*
X72036309Y-47769236D01*
X72306808Y-47687182D01*
X72556101Y-47553932D01*
X72774608Y-47374608D01*
X72953932Y-47156101D01*
X73025000Y-47023142D01*
X73096068Y-47156101D01*
X73275392Y-47374608D01*
X73493899Y-47553932D01*
X73743192Y-47687182D01*
X74013691Y-47769236D01*
X74224508Y-47790000D01*
X74365492Y-47790000D01*
X74576309Y-47769236D01*
X74846808Y-47687182D01*
X75096101Y-47553932D01*
X75314608Y-47374608D01*
X75493932Y-47156101D01*
X75565000Y-47023142D01*
X75636068Y-47156101D01*
X75815392Y-47374608D01*
X76033899Y-47553932D01*
X76283192Y-47687182D01*
X76553691Y-47769236D01*
X76764508Y-47790000D01*
X76905492Y-47790000D01*
X77116309Y-47769236D01*
X77386808Y-47687182D01*
X77636101Y-47553932D01*
X77854608Y-47374608D01*
X78033932Y-47156101D01*
X78105000Y-47023142D01*
X78176068Y-47156101D01*
X78355392Y-47374608D01*
X78573899Y-47553932D01*
X78823192Y-47687182D01*
X79093691Y-47769236D01*
X79304508Y-47790000D01*
X79445492Y-47790000D01*
X79656309Y-47769236D01*
X79926808Y-47687182D01*
X80176101Y-47553932D01*
X80394608Y-47374608D01*
X80573932Y-47156101D01*
X80645000Y-47023142D01*
X80716068Y-47156101D01*
X80895392Y-47374608D01*
X81113899Y-47553932D01*
X81363192Y-47687182D01*
X81633691Y-47769236D01*
X81844508Y-47790000D01*
X81985492Y-47790000D01*
X82196309Y-47769236D01*
X82240907Y-47755708D01*
X82280002Y-47794803D01*
X82280002Y-47925913D01*
X82216898Y-47899774D01*
X82016939Y-47860000D01*
X81813061Y-47860000D01*
X81613102Y-47899774D01*
X81424744Y-47977795D01*
X81255226Y-48091063D01*
X81211289Y-48135000D01*
X74998711Y-48135000D01*
X74954774Y-48091063D01*
X74785256Y-47977795D01*
X74596898Y-47899774D01*
X74396939Y-47860000D01*
X74193061Y-47860000D01*
X73993102Y-47899774D01*
X73804744Y-47977795D01*
X73635226Y-48091063D01*
X73491063Y-48235226D01*
X73377795Y-48404744D01*
X73299774Y-48593102D01*
X73260000Y-48793061D01*
X73260000Y-48996939D01*
X73299774Y-49196898D01*
X73377795Y-49385256D01*
X73390987Y-49405000D01*
X72458711Y-49405000D01*
X72414774Y-49361063D01*
X72245256Y-49247795D01*
X72056898Y-49169774D01*
X71856939Y-49130000D01*
X71653061Y-49130000D01*
X71453102Y-49169774D01*
X71264744Y-49247795D01*
X71095226Y-49361063D01*
X70951063Y-49505226D01*
X70837795Y-49674744D01*
X70759774Y-49863102D01*
X70720000Y-50063061D01*
X70720000Y-50266939D01*
X70759774Y-50466898D01*
X70837795Y-50655256D01*
X70951063Y-50824774D01*
X71095226Y-50968937D01*
X71264744Y-51082205D01*
X71453102Y-51160226D01*
X71653061Y-51200000D01*
X71856939Y-51200000D01*
X72056898Y-51160226D01*
X72245256Y-51082205D01*
X72414774Y-50968937D01*
X72458711Y-50925000D01*
X81211289Y-50925000D01*
X81255226Y-50968937D01*
X81424744Y-51082205D01*
X81613102Y-51160226D01*
X81813061Y-51200000D01*
X82016939Y-51200000D01*
X82216898Y-51160226D01*
X82280001Y-51134087D01*
X82280001Y-52586151D01*
X82196309Y-52560764D01*
X81985492Y-52540000D01*
X81844508Y-52540000D01*
X81633691Y-52560764D01*
X81363192Y-52642818D01*
X81113899Y-52776068D01*
X80895392Y-52955392D01*
X80716068Y-53173899D01*
X80645000Y-53306858D01*
X80573932Y-53173899D01*
X80394608Y-52955392D01*
X80176101Y-52776068D01*
X79926808Y-52642818D01*
X79656309Y-52560764D01*
X79445492Y-52540000D01*
X79304508Y-52540000D01*
X79093691Y-52560764D01*
X78823192Y-52642818D01*
X78573899Y-52776068D01*
X78355392Y-52955392D01*
X78176068Y-53173899D01*
X78105000Y-53306858D01*
X78033932Y-53173899D01*
X77854608Y-52955392D01*
X77636101Y-52776068D01*
X77386808Y-52642818D01*
X77116309Y-52560764D01*
X76905492Y-52540000D01*
X76764508Y-52540000D01*
X76553691Y-52560764D01*
X76283192Y-52642818D01*
X76033899Y-52776068D01*
X75815392Y-52955392D01*
X75636068Y-53173899D01*
X75565000Y-53306858D01*
X75493932Y-53173899D01*
X75314608Y-52955392D01*
X75096101Y-52776068D01*
X74846808Y-52642818D01*
X74576309Y-52560764D01*
X74365492Y-52540000D01*
X74224508Y-52540000D01*
X74013691Y-52560764D01*
X73743192Y-52642818D01*
X73493899Y-52776068D01*
X73275392Y-52955392D01*
X73096068Y-53173899D01*
X73025000Y-53306858D01*
X72953932Y-53173899D01*
X72774608Y-52955392D01*
X72556101Y-52776068D01*
X72306808Y-52642818D01*
X72036309Y-52560764D01*
X71825492Y-52540000D01*
X71684508Y-52540000D01*
X71473691Y-52560764D01*
X71203192Y-52642818D01*
X70953899Y-52776068D01*
X70735392Y-52955392D01*
X70556068Y-53173899D01*
X70485000Y-53306858D01*
X70413932Y-53173899D01*
X70234608Y-52955392D01*
X70016101Y-52776068D01*
X69766808Y-52642818D01*
X69496309Y-52560764D01*
X69285492Y-52540000D01*
X69144508Y-52540000D01*
X68933691Y-52560764D01*
X68663192Y-52642818D01*
X68413899Y-52776068D01*
X68195392Y-52955392D01*
X68016068Y-53173899D01*
X67882818Y-53423192D01*
X67800764Y-53693691D01*
X67773057Y-53975000D01*
X67800764Y-54256309D01*
X67882818Y-54526808D01*
X68016068Y-54776101D01*
X68195392Y-54994608D01*
X68413899Y-55173932D01*
X68663192Y-55307182D01*
X68933691Y-55389236D01*
X69144508Y-55410000D01*
X69285492Y-55410000D01*
X69496309Y-55389236D01*
X69766808Y-55307182D01*
X70016101Y-55173932D01*
X70234608Y-54994608D01*
X70413932Y-54776101D01*
X70485000Y-54643142D01*
X70556068Y-54776101D01*
X70735392Y-54994608D01*
X70953899Y-55173932D01*
X71203192Y-55307182D01*
X71473691Y-55389236D01*
X71684508Y-55410000D01*
X71825492Y-55410000D01*
X72036309Y-55389236D01*
X72306808Y-55307182D01*
X72556101Y-55173932D01*
X72774608Y-54994608D01*
X72953932Y-54776101D01*
X73025000Y-54643142D01*
X73096068Y-54776101D01*
X73275392Y-54994608D01*
X73493899Y-55173932D01*
X73743192Y-55307182D01*
X74013691Y-55389236D01*
X74224508Y-55410000D01*
X74365492Y-55410000D01*
X74576309Y-55389236D01*
X74846808Y-55307182D01*
X75096101Y-55173932D01*
X75314608Y-54994608D01*
X75493932Y-54776101D01*
X75565000Y-54643142D01*
X75636068Y-54776101D01*
X75815392Y-54994608D01*
X76033899Y-55173932D01*
X76283192Y-55307182D01*
X76553691Y-55389236D01*
X76764508Y-55410000D01*
X76905492Y-55410000D01*
X77116309Y-55389236D01*
X77386808Y-55307182D01*
X77636101Y-55173932D01*
X77854608Y-54994608D01*
X78033932Y-54776101D01*
X78105000Y-54643142D01*
X78176068Y-54776101D01*
X78355392Y-54994608D01*
X78573899Y-55173932D01*
X78823192Y-55307182D01*
X79093691Y-55389236D01*
X79304508Y-55410000D01*
X79445492Y-55410000D01*
X79656309Y-55389236D01*
X79926808Y-55307182D01*
X80176101Y-55173932D01*
X80394608Y-54994608D01*
X80573932Y-54776101D01*
X80645000Y-54643142D01*
X80716068Y-54776101D01*
X80895392Y-54994608D01*
X81113899Y-55173932D01*
X81260485Y-55252284D01*
X81209454Y-55347756D01*
X81181924Y-55438513D01*
X81175407Y-55460000D01*
X81165998Y-55491017D01*
X81151324Y-55640002D01*
X81155001Y-55677334D01*
X81155000Y-60256289D01*
X81111063Y-60300226D01*
X80997795Y-60469744D01*
X80919774Y-60658102D01*
X80880000Y-60858061D01*
X80880000Y-61061939D01*
X80919774Y-61261898D01*
X80997795Y-61450256D01*
X81111063Y-61619774D01*
X81255226Y-61763937D01*
X81424744Y-61877205D01*
X81613102Y-61955226D01*
X81813061Y-61995000D01*
X82016939Y-61995000D01*
X82216898Y-61955226D01*
X82405256Y-61877205D01*
X82574774Y-61763937D01*
X82718937Y-61619774D01*
X82832205Y-61450256D01*
X82910226Y-61261898D01*
X82950000Y-61061939D01*
X82950000Y-60858061D01*
X82910226Y-60658102D01*
X82832205Y-60469744D01*
X82718937Y-60300226D01*
X82675000Y-60256289D01*
X82675000Y-55954803D01*
X83548843Y-55080961D01*
X83717580Y-55206037D01*
X83971913Y-55326246D01*
X84105961Y-55366904D01*
X84328000Y-55244915D01*
X84328000Y-54102000D01*
X84582000Y-54102000D01*
X84582000Y-55244915D01*
X84804039Y-55366904D01*
X84938087Y-55326246D01*
X85192420Y-55206037D01*
X85418414Y-55038519D01*
X85607385Y-54830131D01*
X85752070Y-54588881D01*
X85846909Y-54324040D01*
X85725624Y-54102000D01*
X84582000Y-54102000D01*
X84328000Y-54102000D01*
X84308000Y-54102000D01*
X84308000Y-53848000D01*
X84328000Y-53848000D01*
X84328000Y-52705085D01*
X84582000Y-52705085D01*
X84582000Y-53848000D01*
X85725624Y-53848000D01*
X85846909Y-53625960D01*
X85752070Y-53361119D01*
X85607385Y-53119869D01*
X85418414Y-52911481D01*
X85192420Y-52743963D01*
X84938087Y-52623754D01*
X84804039Y-52583096D01*
X84582000Y-52705085D01*
X84328000Y-52705085D01*
X84105961Y-52583096D01*
X83971913Y-52623754D01*
X83800001Y-52705007D01*
X83800001Y-51435000D01*
X88042815Y-51435000D01*
X88071487Y-51726111D01*
X88156401Y-52006034D01*
X88294294Y-52264014D01*
X88479866Y-52490134D01*
X88705986Y-52675706D01*
X88760791Y-52705000D01*
X88705986Y-52734294D01*
X88479866Y-52919866D01*
X88294294Y-53145986D01*
X88156401Y-53403966D01*
X88071487Y-53683889D01*
X88042815Y-53975000D01*
X88071487Y-54266111D01*
X88156401Y-54546034D01*
X88294294Y-54804014D01*
X88479866Y-55030134D01*
X88705986Y-55215706D01*
X88760791Y-55245000D01*
X88705986Y-55274294D01*
X88479866Y-55459866D01*
X88294294Y-55685986D01*
X88156401Y-55943966D01*
X88071487Y-56223889D01*
X88042815Y-56515000D01*
X88071487Y-56806111D01*
X88156401Y-57086034D01*
X88294294Y-57344014D01*
X88479866Y-57570134D01*
X88705986Y-57755706D01*
X88760791Y-57785000D01*
X88705986Y-57814294D01*
X88479866Y-57999866D01*
X88294294Y-58225986D01*
X88156401Y-58483966D01*
X88071487Y-58763889D01*
X88042815Y-59055000D01*
X88071487Y-59346111D01*
X88156401Y-59626034D01*
X88294294Y-59884014D01*
X88479866Y-60110134D01*
X88705986Y-60295706D01*
X88760791Y-60325000D01*
X88705986Y-60354294D01*
X88479866Y-60539866D01*
X88294294Y-60765986D01*
X88156401Y-61023966D01*
X88071487Y-61303889D01*
X88042815Y-61595000D01*
X88071487Y-61886111D01*
X88156401Y-62166034D01*
X88294294Y-62424014D01*
X88479866Y-62650134D01*
X88705986Y-62835706D01*
X88770523Y-62870201D01*
X88653645Y-62939822D01*
X88437412Y-63134731D01*
X88263359Y-63368080D01*
X88138175Y-63630901D01*
X88093524Y-63778110D01*
X88214845Y-64008000D01*
X89408000Y-64008000D01*
X89408000Y-63988000D01*
X89662000Y-63988000D01*
X89662000Y-64008000D01*
X90855155Y-64008000D01*
X90976476Y-63778110D01*
X90931825Y-63630901D01*
X90806641Y-63368080D01*
X90632588Y-63134731D01*
X90416355Y-62939822D01*
X90299477Y-62870201D01*
X90364014Y-62835706D01*
X90590134Y-62650134D01*
X90775706Y-62424014D01*
X90913599Y-62166034D01*
X90998513Y-61886111D01*
X91027185Y-61595000D01*
X90998513Y-61303889D01*
X90913599Y-61023966D01*
X90775706Y-60765986D01*
X90590134Y-60539866D01*
X90364014Y-60354294D01*
X90309209Y-60325000D01*
X90364014Y-60295706D01*
X90590134Y-60110134D01*
X90775706Y-59884014D01*
X90913599Y-59626034D01*
X90998513Y-59346111D01*
X91027185Y-59055000D01*
X90998513Y-58763889D01*
X90913599Y-58483966D01*
X90775706Y-58225986D01*
X90590134Y-57999866D01*
X90364014Y-57814294D01*
X90309209Y-57785000D01*
X90364014Y-57755706D01*
X90590134Y-57570134D01*
X90775706Y-57344014D01*
X90913599Y-57086034D01*
X90998513Y-56806111D01*
X91027185Y-56515000D01*
X90998513Y-56223889D01*
X90913599Y-55943966D01*
X90775706Y-55685986D01*
X90590134Y-55459866D01*
X90364014Y-55274294D01*
X90309209Y-55245000D01*
X90364014Y-55215706D01*
X90590134Y-55030134D01*
X90775706Y-54804014D01*
X90913599Y-54546034D01*
X90998513Y-54266111D01*
X91027185Y-53975000D01*
X90998513Y-53683889D01*
X90913599Y-53403966D01*
X90775706Y-53145986D01*
X90590134Y-52919866D01*
X90364014Y-52734294D01*
X90309209Y-52705000D01*
X90364014Y-52675706D01*
X90590134Y-52490134D01*
X90775706Y-52264014D01*
X90913599Y-52006034D01*
X90998513Y-51726111D01*
X91027185Y-51435000D01*
X90998513Y-51143889D01*
X90913599Y-50863966D01*
X90775706Y-50605986D01*
X90590134Y-50379866D01*
X90560313Y-50355393D01*
X90629180Y-50334502D01*
X90739494Y-50275537D01*
X90836185Y-50196185D01*
X90915537Y-50099494D01*
X90974502Y-49989180D01*
X91010812Y-49869482D01*
X91023072Y-49745000D01*
X91023072Y-48045000D01*
X91010812Y-47920518D01*
X90974502Y-47800820D01*
X90915537Y-47690506D01*
X90836185Y-47593815D01*
X90739494Y-47514463D01*
X90629180Y-47455498D01*
X90509482Y-47419188D01*
X90385000Y-47406928D01*
X88685000Y-47406928D01*
X88560518Y-47419188D01*
X88440820Y-47455498D01*
X88330506Y-47514463D01*
X88233815Y-47593815D01*
X88154463Y-47690506D01*
X88095498Y-47800820D01*
X88059188Y-47920518D01*
X88046928Y-48045000D01*
X88046928Y-49745000D01*
X88059188Y-49869482D01*
X88095498Y-49989180D01*
X88154463Y-50099494D01*
X88233815Y-50196185D01*
X88330506Y-50275537D01*
X88440820Y-50334502D01*
X88509687Y-50355393D01*
X88479866Y-50379866D01*
X88294294Y-50605986D01*
X88156401Y-50863966D01*
X88071487Y-51143889D01*
X88042815Y-51435000D01*
X83800001Y-51435000D01*
X83800001Y-47793072D01*
X85255000Y-47793072D01*
X85379482Y-47780812D01*
X85499180Y-47744502D01*
X85609494Y-47685537D01*
X85706185Y-47606185D01*
X85785537Y-47509494D01*
X85844502Y-47399180D01*
X85880812Y-47279482D01*
X85893072Y-47155000D01*
X85893072Y-45555000D01*
X85880812Y-45430518D01*
X85844502Y-45310820D01*
X85785537Y-45200506D01*
X85706185Y-45103815D01*
X85609494Y-45024463D01*
X85499180Y-44965498D01*
X85379482Y-44929188D01*
X85255000Y-44916928D01*
X83655000Y-44916928D01*
X83530518Y-44929188D01*
X83410820Y-44965498D01*
X83300506Y-45024463D01*
X83203815Y-45103815D01*
X83124463Y-45200506D01*
X83065498Y-45310820D01*
X83029188Y-45430518D01*
X83027419Y-45448482D01*
X82934608Y-45335392D01*
X82716101Y-45156068D01*
X82466808Y-45022818D01*
X82196309Y-44940764D01*
X81985492Y-44920000D01*
X81844508Y-44920000D01*
X81633691Y-44940764D01*
X81363192Y-45022818D01*
X81113899Y-45156068D01*
X80895392Y-45335392D01*
X80716068Y-45553899D01*
X80645000Y-45686858D01*
X80573932Y-45553899D01*
X80394608Y-45335392D01*
X80176101Y-45156068D01*
X79926808Y-45022818D01*
X79656309Y-44940764D01*
X79445492Y-44920000D01*
X79304508Y-44920000D01*
X79093691Y-44940764D01*
X78823192Y-45022818D01*
X78573899Y-45156068D01*
X78355392Y-45335392D01*
X78176068Y-45553899D01*
X78105000Y-45686858D01*
X78033932Y-45553899D01*
X77854608Y-45335392D01*
X77636101Y-45156068D01*
X77386808Y-45022818D01*
X77116309Y-44940764D01*
X76905492Y-44920000D01*
X76764508Y-44920000D01*
X76553691Y-44940764D01*
X76283192Y-45022818D01*
X76033899Y-45156068D01*
X75815392Y-45335392D01*
X75636068Y-45553899D01*
X75565000Y-45686858D01*
X75493932Y-45553899D01*
X75314608Y-45335392D01*
X75096101Y-45156068D01*
X74846808Y-45022818D01*
X74576309Y-44940764D01*
X74365492Y-44920000D01*
X74224508Y-44920000D01*
X74013691Y-44940764D01*
X73743192Y-45022818D01*
X73493899Y-45156068D01*
X73275392Y-45335392D01*
X73096068Y-45553899D01*
X73025000Y-45686858D01*
X72953932Y-45553899D01*
X72774608Y-45335392D01*
X72556101Y-45156068D01*
X72306808Y-45022818D01*
X72036309Y-44940764D01*
X71825492Y-44920000D01*
X71684508Y-44920000D01*
X71473691Y-44940764D01*
X71203192Y-45022818D01*
X70953899Y-45156068D01*
X70735392Y-45335392D01*
X70556068Y-45553899D01*
X70485000Y-45686858D01*
X70413932Y-45553899D01*
X70234608Y-45335392D01*
X70016101Y-45156068D01*
X69766808Y-45022818D01*
X69496309Y-44940764D01*
X69285492Y-44920000D01*
X69144508Y-44920000D01*
X68933691Y-44940764D01*
X68663192Y-45022818D01*
X68413899Y-45156068D01*
X68195392Y-45335392D01*
X68016068Y-45553899D01*
X67882818Y-45803192D01*
X67800764Y-46073691D01*
X67773057Y-46355000D01*
X46482000Y-46355000D01*
X46482000Y-43942000D01*
X91313000Y-43942000D01*
X91313000Y-77978000D01*
X91313000Y-77978000D01*
G37*
X91313000Y-77978000D02*
X46482000Y-77978000D01*
X46482000Y-72429000D01*
X88046928Y-72429000D01*
X88046928Y-74129000D01*
X88059188Y-74253482D01*
X88095498Y-74373180D01*
X88154463Y-74483494D01*
X88233815Y-74580185D01*
X88330506Y-74659537D01*
X88440820Y-74718502D01*
X88560518Y-74754812D01*
X88685000Y-74767072D01*
X90385000Y-74767072D01*
X90509482Y-74754812D01*
X90629180Y-74718502D01*
X90739494Y-74659537D01*
X90836185Y-74580185D01*
X90915537Y-74483494D01*
X90974502Y-74373180D01*
X91010812Y-74253482D01*
X91023072Y-74129000D01*
X91023072Y-72429000D01*
X91010812Y-72304518D01*
X90974502Y-72184820D01*
X90915537Y-72074506D01*
X90836185Y-71977815D01*
X90739494Y-71898463D01*
X90629180Y-71839498D01*
X90509482Y-71803188D01*
X90385000Y-71790928D01*
X88685000Y-71790928D01*
X88560518Y-71803188D01*
X88440820Y-71839498D01*
X88330506Y-71898463D01*
X88233815Y-71977815D01*
X88154463Y-72074506D01*
X88095498Y-72184820D01*
X88059188Y-72304518D01*
X88046928Y-72429000D01*
X46482000Y-72429000D01*
X46482000Y-66675000D01*
X88042815Y-66675000D01*
X88071487Y-66966111D01*
X88156401Y-67246034D01*
X88294294Y-67504014D01*
X88479866Y-67730134D01*
X88705986Y-67915706D01*
X88963966Y-68053599D01*
X89243889Y-68138513D01*
X89462050Y-68160000D01*
X89607950Y-68160000D01*
X89826111Y-68138513D01*
X90106034Y-68053599D01*
X90364014Y-67915706D01*
X90590134Y-67730134D01*
X90775706Y-67504014D01*
X90913599Y-67246034D01*
X90998513Y-66966111D01*
X91027185Y-66675000D01*
X90998513Y-66383889D01*
X90913599Y-66103966D01*
X90775706Y-65845986D01*
X90590134Y-65619866D01*
X90364014Y-65434294D01*
X90299477Y-65399799D01*
X90416355Y-65330178D01*
X90632588Y-65135269D01*
X90806641Y-64901920D01*
X90931825Y-64639099D01*
X90976476Y-64491890D01*
X90855155Y-64262000D01*
X89662000Y-64262000D01*
X89662000Y-64282000D01*
X89408000Y-64282000D01*
X89408000Y-64262000D01*
X88214845Y-64262000D01*
X88093524Y-64491890D01*
X88138175Y-64639099D01*
X88263359Y-64901920D01*
X88437412Y-65135269D01*
X88653645Y-65330178D01*
X88770523Y-65399799D01*
X88705986Y-65434294D01*
X88479866Y-65619866D01*
X88294294Y-65845986D01*
X88156401Y-66103966D01*
X88071487Y-66383889D01*
X88042815Y-66675000D01*
X46482000Y-66675000D01*
X46482000Y-46355000D01*
X67773057Y-46355000D01*
X67800764Y-46636309D01*
X67882818Y-46906808D01*
X68016068Y-47156101D01*
X68195392Y-47374608D01*
X68413899Y-47553932D01*
X68663192Y-47687182D01*
X68933691Y-47769236D01*
X69144508Y-47790000D01*
X69285492Y-47790000D01*
X69496309Y-47769236D01*
X69766808Y-47687182D01*
X70016101Y-47553932D01*
X70234608Y-47374608D01*
X70413932Y-47156101D01*
X70485000Y-47023142D01*
X70556068Y-47156101D01*
X70735392Y-47374608D01*
X70953899Y-47553932D01*
X71203192Y-47687182D01*
X71473691Y-47769236D01*
X71684508Y-47790000D01*
X71825492Y-47790000D01*
X72036309Y-47769236D01*
X72306808Y-47687182D01*
X72556101Y-47553932D01*
X72774608Y-47374608D01*
X72953932Y-47156101D01*
X73025000Y-47023142D01*
X73096068Y-47156101D01*
X73275392Y-47374608D01*
X73493899Y-47553932D01*
X73743192Y-47687182D01*
X74013691Y-47769236D01*
X74224508Y-47790000D01*
X74365492Y-47790000D01*
X74576309Y-47769236D01*
X74846808Y-47687182D01*
X75096101Y-47553932D01*
X75314608Y-47374608D01*
X75493932Y-47156101D01*
X75565000Y-47023142D01*
X75636068Y-47156101D01*
X75815392Y-47374608D01*
X76033899Y-47553932D01*
X76283192Y-47687182D01*
X76553691Y-47769236D01*
X76764508Y-47790000D01*
X76905492Y-47790000D01*
X77116309Y-47769236D01*
X77386808Y-47687182D01*
X77636101Y-47553932D01*
X77854608Y-47374608D01*
X78033932Y-47156101D01*
X78105000Y-47023142D01*
X78176068Y-47156101D01*
X78355392Y-47374608D01*
X78573899Y-47553932D01*
X78823192Y-47687182D01*
X79093691Y-47769236D01*
X79304508Y-47790000D01*
X79445492Y-47790000D01*
X79656309Y-47769236D01*
X79926808Y-47687182D01*
X80176101Y-47553932D01*
X80394608Y-47374608D01*
X80573932Y-47156101D01*
X80645000Y-47023142D01*
X80716068Y-47156101D01*
X80895392Y-47374608D01*
X81113899Y-47553932D01*
X81363192Y-47687182D01*
X81633691Y-47769236D01*
X81844508Y-47790000D01*
X81985492Y-47790000D01*
X82196309Y-47769236D01*
X82240907Y-47755708D01*
X82280002Y-47794803D01*
X82280002Y-47925913D01*
X82216898Y-47899774D01*
X82016939Y-47860000D01*
X81813061Y-47860000D01*
X81613102Y-47899774D01*
X81424744Y-47977795D01*
X81255226Y-48091063D01*
X81211289Y-48135000D01*
X74998711Y-48135000D01*
X74954774Y-48091063D01*
X74785256Y-47977795D01*
X74596898Y-47899774D01*
X74396939Y-47860000D01*
X74193061Y-47860000D01*
X73993102Y-47899774D01*
X73804744Y-47977795D01*
X73635226Y-48091063D01*
X73491063Y-48235226D01*
X73377795Y-48404744D01*
X73299774Y-48593102D01*
X73260000Y-48793061D01*
X73260000Y-48996939D01*
X73299774Y-49196898D01*
X73377795Y-49385256D01*
X73390987Y-49405000D01*
X72458711Y-49405000D01*
X72414774Y-49361063D01*
X72245256Y-49247795D01*
X72056898Y-49169774D01*
X71856939Y-49130000D01*
X71653061Y-49130000D01*
X71453102Y-49169774D01*
X71264744Y-49247795D01*
X71095226Y-49361063D01*
X70951063Y-49505226D01*
X70837795Y-49674744D01*
X70759774Y-49863102D01*
X70720000Y-50063061D01*
X70720000Y-50266939D01*
X70759774Y-50466898D01*
X70837795Y-50655256D01*
X70951063Y-50824774D01*
X71095226Y-50968937D01*
X71264744Y-51082205D01*
X71453102Y-51160226D01*
X71653061Y-51200000D01*
X71856939Y-51200000D01*
X72056898Y-51160226D01*
X72245256Y-51082205D01*
X72414774Y-50968937D01*
X72458711Y-50925000D01*
X81211289Y-50925000D01*
X81255226Y-50968937D01*
X81424744Y-51082205D01*
X81613102Y-51160226D01*
X81813061Y-51200000D01*
X82016939Y-51200000D01*
X82216898Y-51160226D01*
X82280001Y-51134087D01*
X82280001Y-52586151D01*
X82196309Y-52560764D01*
X81985492Y-52540000D01*
X81844508Y-52540000D01*
X81633691Y-52560764D01*
X81363192Y-52642818D01*
X81113899Y-52776068D01*
X80895392Y-52955392D01*
X80716068Y-53173899D01*
X80645000Y-53306858D01*
X80573932Y-53173899D01*
X80394608Y-52955392D01*
X80176101Y-52776068D01*
X79926808Y-52642818D01*
X79656309Y-52560764D01*
X79445492Y-52540000D01*
X79304508Y-52540000D01*
X79093691Y-52560764D01*
X78823192Y-52642818D01*
X78573899Y-52776068D01*
X78355392Y-52955392D01*
X78176068Y-53173899D01*
X78105000Y-53306858D01*
X78033932Y-53173899D01*
X77854608Y-52955392D01*
X77636101Y-52776068D01*
X77386808Y-52642818D01*
X77116309Y-52560764D01*
X76905492Y-52540000D01*
X76764508Y-52540000D01*
X76553691Y-52560764D01*
X76283192Y-52642818D01*
X76033899Y-52776068D01*
X75815392Y-52955392D01*
X75636068Y-53173899D01*
X75565000Y-53306858D01*
X75493932Y-53173899D01*
X75314608Y-52955392D01*
X75096101Y-52776068D01*
X74846808Y-52642818D01*
X74576309Y-52560764D01*
X74365492Y-52540000D01*
X74224508Y-52540000D01*
X74013691Y-52560764D01*
X73743192Y-52642818D01*
X73493899Y-52776068D01*
X73275392Y-52955392D01*
X73096068Y-53173899D01*
X73025000Y-53306858D01*
X72953932Y-53173899D01*
X72774608Y-52955392D01*
X72556101Y-52776068D01*
X72306808Y-52642818D01*
X72036309Y-52560764D01*
X71825492Y-52540000D01*
X71684508Y-52540000D01*
X71473691Y-52560764D01*
X71203192Y-52642818D01*
X70953899Y-52776068D01*
X70735392Y-52955392D01*
X70556068Y-53173899D01*
X70485000Y-53306858D01*
X70413932Y-53173899D01*
X70234608Y-52955392D01*
X70016101Y-52776068D01*
X69766808Y-52642818D01*
X69496309Y-52560764D01*
X69285492Y-52540000D01*
X69144508Y-52540000D01*
X68933691Y-52560764D01*
X68663192Y-52642818D01*
X68413899Y-52776068D01*
X68195392Y-52955392D01*
X68016068Y-53173899D01*
X67882818Y-53423192D01*
X67800764Y-53693691D01*
X67773057Y-53975000D01*
X67800764Y-54256309D01*
X67882818Y-54526808D01*
X68016068Y-54776101D01*
X68195392Y-54994608D01*
X68413899Y-55173932D01*
X68663192Y-55307182D01*
X68933691Y-55389236D01*
X69144508Y-55410000D01*
X69285492Y-55410000D01*
X69496309Y-55389236D01*
X69766808Y-55307182D01*
X70016101Y-55173932D01*
X70234608Y-54994608D01*
X70413932Y-54776101D01*
X70485000Y-54643142D01*
X70556068Y-54776101D01*
X70735392Y-54994608D01*
X70953899Y-55173932D01*
X71203192Y-55307182D01*
X71473691Y-55389236D01*
X71684508Y-55410000D01*
X71825492Y-55410000D01*
X72036309Y-55389236D01*
X72306808Y-55307182D01*
X72556101Y-55173932D01*
X72774608Y-54994608D01*
X72953932Y-54776101D01*
X73025000Y-54643142D01*
X73096068Y-54776101D01*
X73275392Y-54994608D01*
X73493899Y-55173932D01*
X73743192Y-55307182D01*
X74013691Y-55389236D01*
X74224508Y-55410000D01*
X74365492Y-55410000D01*
X74576309Y-55389236D01*
X74846808Y-55307182D01*
X75096101Y-55173932D01*
X75314608Y-54994608D01*
X75493932Y-54776101D01*
X75565000Y-54643142D01*
X75636068Y-54776101D01*
X75815392Y-54994608D01*
X76033899Y-55173932D01*
X76283192Y-55307182D01*
X76553691Y-55389236D01*
X76764508Y-55410000D01*
X76905492Y-55410000D01*
X77116309Y-55389236D01*
X77386808Y-55307182D01*
X77636101Y-55173932D01*
X77854608Y-54994608D01*
X78033932Y-54776101D01*
X78105000Y-54643142D01*
X78176068Y-54776101D01*
X78355392Y-54994608D01*
X78573899Y-55173932D01*
X78823192Y-55307182D01*
X79093691Y-55389236D01*
X79304508Y-55410000D01*
X79445492Y-55410000D01*
X79656309Y-55389236D01*
X79926808Y-55307182D01*
X80176101Y-55173932D01*
X80394608Y-54994608D01*
X80573932Y-54776101D01*
X80645000Y-54643142D01*
X80716068Y-54776101D01*
X80895392Y-54994608D01*
X81113899Y-55173932D01*
X81260485Y-55252284D01*
X81209454Y-55347756D01*
X81181924Y-55438513D01*
X81175407Y-55460000D01*
X81165998Y-55491017D01*
X81151324Y-55640002D01*
X81155001Y-55677334D01*
X81155000Y-60256289D01*
X81111063Y-60300226D01*
X80997795Y-60469744D01*
X80919774Y-60658102D01*
X80880000Y-60858061D01*
X80880000Y-61061939D01*
X80919774Y-61261898D01*
X80997795Y-61450256D01*
X81111063Y-61619774D01*
X81255226Y-61763937D01*
X81424744Y-61877205D01*
X81613102Y-61955226D01*
X81813061Y-61995000D01*
X82016939Y-61995000D01*
X82216898Y-61955226D01*
X82405256Y-61877205D01*
X82574774Y-61763937D01*
X82718937Y-61619774D01*
X82832205Y-61450256D01*
X82910226Y-61261898D01*
X82950000Y-61061939D01*
X82950000Y-60858061D01*
X82910226Y-60658102D01*
X82832205Y-60469744D01*
X82718937Y-60300226D01*
X82675000Y-60256289D01*
X82675000Y-55954803D01*
X83548843Y-55080961D01*
X83717580Y-55206037D01*
X83971913Y-55326246D01*
X84105961Y-55366904D01*
X84328000Y-55244915D01*
X84328000Y-54102000D01*
X84582000Y-54102000D01*
X84582000Y-55244915D01*
X84804039Y-55366904D01*
X84938087Y-55326246D01*
X85192420Y-55206037D01*
X85418414Y-55038519D01*
X85607385Y-54830131D01*
X85752070Y-54588881D01*
X85846909Y-54324040D01*
X85725624Y-54102000D01*
X84582000Y-54102000D01*
X84328000Y-54102000D01*
X84308000Y-54102000D01*
X84308000Y-53848000D01*
X84328000Y-53848000D01*
X84328000Y-52705085D01*
X84582000Y-52705085D01*
X84582000Y-53848000D01*
X85725624Y-53848000D01*
X85846909Y-53625960D01*
X85752070Y-53361119D01*
X85607385Y-53119869D01*
X85418414Y-52911481D01*
X85192420Y-52743963D01*
X84938087Y-52623754D01*
X84804039Y-52583096D01*
X84582000Y-52705085D01*
X84328000Y-52705085D01*
X84105961Y-52583096D01*
X83971913Y-52623754D01*
X83800001Y-52705007D01*
X83800001Y-51435000D01*
X88042815Y-51435000D01*
X88071487Y-51726111D01*
X88156401Y-52006034D01*
X88294294Y-52264014D01*
X88479866Y-52490134D01*
X88705986Y-52675706D01*
X88760791Y-52705000D01*
X88705986Y-52734294D01*
X88479866Y-52919866D01*
X88294294Y-53145986D01*
X88156401Y-53403966D01*
X88071487Y-53683889D01*
X88042815Y-53975000D01*
X88071487Y-54266111D01*
X88156401Y-54546034D01*
X88294294Y-54804014D01*
X88479866Y-55030134D01*
X88705986Y-55215706D01*
X88760791Y-55245000D01*
X88705986Y-55274294D01*
X88479866Y-55459866D01*
X88294294Y-55685986D01*
X88156401Y-55943966D01*
X88071487Y-56223889D01*
X88042815Y-56515000D01*
X88071487Y-56806111D01*
X88156401Y-57086034D01*
X88294294Y-57344014D01*
X88479866Y-57570134D01*
X88705986Y-57755706D01*
X88760791Y-57785000D01*
X88705986Y-57814294D01*
X88479866Y-57999866D01*
X88294294Y-58225986D01*
X88156401Y-58483966D01*
X88071487Y-58763889D01*
X88042815Y-59055000D01*
X88071487Y-59346111D01*
X88156401Y-59626034D01*
X88294294Y-59884014D01*
X88479866Y-60110134D01*
X88705986Y-60295706D01*
X88760791Y-60325000D01*
X88705986Y-60354294D01*
X88479866Y-60539866D01*
X88294294Y-60765986D01*
X88156401Y-61023966D01*
X88071487Y-61303889D01*
X88042815Y-61595000D01*
X88071487Y-61886111D01*
X88156401Y-62166034D01*
X88294294Y-62424014D01*
X88479866Y-62650134D01*
X88705986Y-62835706D01*
X88770523Y-62870201D01*
X88653645Y-62939822D01*
X88437412Y-63134731D01*
X88263359Y-63368080D01*
X88138175Y-63630901D01*
X88093524Y-63778110D01*
X88214845Y-64008000D01*
X89408000Y-64008000D01*
X89408000Y-63988000D01*
X89662000Y-63988000D01*
X89662000Y-64008000D01*
X90855155Y-64008000D01*
X90976476Y-63778110D01*
X90931825Y-63630901D01*
X90806641Y-63368080D01*
X90632588Y-63134731D01*
X90416355Y-62939822D01*
X90299477Y-62870201D01*
X90364014Y-62835706D01*
X90590134Y-62650134D01*
X90775706Y-62424014D01*
X90913599Y-62166034D01*
X90998513Y-61886111D01*
X91027185Y-61595000D01*
X90998513Y-61303889D01*
X90913599Y-61023966D01*
X90775706Y-60765986D01*
X90590134Y-60539866D01*
X90364014Y-60354294D01*
X90309209Y-60325000D01*
X90364014Y-60295706D01*
X90590134Y-60110134D01*
X90775706Y-59884014D01*
X90913599Y-59626034D01*
X90998513Y-59346111D01*
X91027185Y-59055000D01*
X90998513Y-58763889D01*
X90913599Y-58483966D01*
X90775706Y-58225986D01*
X90590134Y-57999866D01*
X90364014Y-57814294D01*
X90309209Y-57785000D01*
X90364014Y-57755706D01*
X90590134Y-57570134D01*
X90775706Y-57344014D01*
X90913599Y-57086034D01*
X90998513Y-56806111D01*
X91027185Y-56515000D01*
X90998513Y-56223889D01*
X90913599Y-55943966D01*
X90775706Y-55685986D01*
X90590134Y-55459866D01*
X90364014Y-55274294D01*
X90309209Y-55245000D01*
X90364014Y-55215706D01*
X90590134Y-55030134D01*
X90775706Y-54804014D01*
X90913599Y-54546034D01*
X90998513Y-54266111D01*
X91027185Y-53975000D01*
X90998513Y-53683889D01*
X90913599Y-53403966D01*
X90775706Y-53145986D01*
X90590134Y-52919866D01*
X90364014Y-52734294D01*
X90309209Y-52705000D01*
X90364014Y-52675706D01*
X90590134Y-52490134D01*
X90775706Y-52264014D01*
X90913599Y-52006034D01*
X90998513Y-51726111D01*
X91027185Y-51435000D01*
X90998513Y-51143889D01*
X90913599Y-50863966D01*
X90775706Y-50605986D01*
X90590134Y-50379866D01*
X90560313Y-50355393D01*
X90629180Y-50334502D01*
X90739494Y-50275537D01*
X90836185Y-50196185D01*
X90915537Y-50099494D01*
X90974502Y-49989180D01*
X91010812Y-49869482D01*
X91023072Y-49745000D01*
X91023072Y-48045000D01*
X91010812Y-47920518D01*
X90974502Y-47800820D01*
X90915537Y-47690506D01*
X90836185Y-47593815D01*
X90739494Y-47514463D01*
X90629180Y-47455498D01*
X90509482Y-47419188D01*
X90385000Y-47406928D01*
X88685000Y-47406928D01*
X88560518Y-47419188D01*
X88440820Y-47455498D01*
X88330506Y-47514463D01*
X88233815Y-47593815D01*
X88154463Y-47690506D01*
X88095498Y-47800820D01*
X88059188Y-47920518D01*
X88046928Y-48045000D01*
X88046928Y-49745000D01*
X88059188Y-49869482D01*
X88095498Y-49989180D01*
X88154463Y-50099494D01*
X88233815Y-50196185D01*
X88330506Y-50275537D01*
X88440820Y-50334502D01*
X88509687Y-50355393D01*
X88479866Y-50379866D01*
X88294294Y-50605986D01*
X88156401Y-50863966D01*
X88071487Y-51143889D01*
X88042815Y-51435000D01*
X83800001Y-51435000D01*
X83800001Y-47793072D01*
X85255000Y-47793072D01*
X85379482Y-47780812D01*
X85499180Y-47744502D01*
X85609494Y-47685537D01*
X85706185Y-47606185D01*
X85785537Y-47509494D01*
X85844502Y-47399180D01*
X85880812Y-47279482D01*
X85893072Y-47155000D01*
X85893072Y-45555000D01*
X85880812Y-45430518D01*
X85844502Y-45310820D01*
X85785537Y-45200506D01*
X85706185Y-45103815D01*
X85609494Y-45024463D01*
X85499180Y-44965498D01*
X85379482Y-44929188D01*
X85255000Y-44916928D01*
X83655000Y-44916928D01*
X83530518Y-44929188D01*
X83410820Y-44965498D01*
X83300506Y-45024463D01*
X83203815Y-45103815D01*
X83124463Y-45200506D01*
X83065498Y-45310820D01*
X83029188Y-45430518D01*
X83027419Y-45448482D01*
X82934608Y-45335392D01*
X82716101Y-45156068D01*
X82466808Y-45022818D01*
X82196309Y-44940764D01*
X81985492Y-44920000D01*
X81844508Y-44920000D01*
X81633691Y-44940764D01*
X81363192Y-45022818D01*
X81113899Y-45156068D01*
X80895392Y-45335392D01*
X80716068Y-45553899D01*
X80645000Y-45686858D01*
X80573932Y-45553899D01*
X80394608Y-45335392D01*
X80176101Y-45156068D01*
X79926808Y-45022818D01*
X79656309Y-44940764D01*
X79445492Y-44920000D01*
X79304508Y-44920000D01*
X79093691Y-44940764D01*
X78823192Y-45022818D01*
X78573899Y-45156068D01*
X78355392Y-45335392D01*
X78176068Y-45553899D01*
X78105000Y-45686858D01*
X78033932Y-45553899D01*
X77854608Y-45335392D01*
X77636101Y-45156068D01*
X77386808Y-45022818D01*
X77116309Y-44940764D01*
X76905492Y-44920000D01*
X76764508Y-44920000D01*
X76553691Y-44940764D01*
X76283192Y-45022818D01*
X76033899Y-45156068D01*
X75815392Y-45335392D01*
X75636068Y-45553899D01*
X75565000Y-45686858D01*
X75493932Y-45553899D01*
X75314608Y-45335392D01*
X75096101Y-45156068D01*
X74846808Y-45022818D01*
X74576309Y-44940764D01*
X74365492Y-44920000D01*
X74224508Y-44920000D01*
X74013691Y-44940764D01*
X73743192Y-45022818D01*
X73493899Y-45156068D01*
X73275392Y-45335392D01*
X73096068Y-45553899D01*
X73025000Y-45686858D01*
X72953932Y-45553899D01*
X72774608Y-45335392D01*
X72556101Y-45156068D01*
X72306808Y-45022818D01*
X72036309Y-44940764D01*
X71825492Y-44920000D01*
X71684508Y-44920000D01*
X71473691Y-44940764D01*
X71203192Y-45022818D01*
X70953899Y-45156068D01*
X70735392Y-45335392D01*
X70556068Y-45553899D01*
X70485000Y-45686858D01*
X70413932Y-45553899D01*
X70234608Y-45335392D01*
X70016101Y-45156068D01*
X69766808Y-45022818D01*
X69496309Y-44940764D01*
X69285492Y-44920000D01*
X69144508Y-44920000D01*
X68933691Y-44940764D01*
X68663192Y-45022818D01*
X68413899Y-45156068D01*
X68195392Y-45335392D01*
X68016068Y-45553899D01*
X67882818Y-45803192D01*
X67800764Y-46073691D01*
X67773057Y-46355000D01*
X46482000Y-46355000D01*
X46482000Y-43942000D01*
X91313000Y-43942000D01*
X91313000Y-77978000D01*
M02*
