G04 #@! TF.GenerationSoftware,KiCad,Pcbnew,5.1.4*
G04 #@! TF.CreationDate,2019-09-02T21:27:03+02:00*
G04 #@! TF.ProjectId,LORA_ATTINY84,4c4f5241-5f41-4545-9449-4e5938342e6b,rev?*
G04 #@! TF.SameCoordinates,Original*
G04 #@! TF.FileFunction,Copper,L1,Top*
G04 #@! TF.FilePolarity,Positive*
%FSLAX46Y46*%
G04 Gerber Fmt 4.6, Leading zero omitted, Abs format (unit mm)*
G04 Created by KiCad (PCBNEW 5.1.4) date 2019-09-02 21:27:03*
%MOMM*%
%LPD*%
G04 APERTURE LIST*
%ADD10R,3.600000X7.100000*%
%ADD11R,1.700000X1.700000*%
%ADD12O,1.700000X1.700000*%
%ADD13O,1.600000X1.600000*%
%ADD14R,1.600000X1.600000*%
%ADD15O,2.000000X1.000000*%
%ADD16C,0.800000*%
%ADD17C,0.250000*%
%ADD18C,0.254000*%
G04 APERTURE END LIST*
D10*
X56515000Y-48514000D03*
X56515000Y-73406000D03*
D11*
X89535000Y-48895000D03*
D12*
X89535000Y-51435000D03*
X89535000Y-53975000D03*
X89535000Y-56515000D03*
X89535000Y-59055000D03*
X89535000Y-61595000D03*
X89535000Y-64135000D03*
X89535000Y-66675000D03*
D13*
X84455000Y-53975000D03*
X69215000Y-46355000D03*
X81915000Y-53975000D03*
X71755000Y-46355000D03*
X79375000Y-53975000D03*
X74295000Y-46355000D03*
X76835000Y-53975000D03*
X76835000Y-46355000D03*
X74295000Y-53975000D03*
X79375000Y-46355000D03*
X71755000Y-53975000D03*
X81915000Y-46355000D03*
X69215000Y-53975000D03*
D14*
X84455000Y-46355000D03*
D15*
X84580000Y-59309000D03*
X84580000Y-61309000D03*
X84580000Y-63309000D03*
X84580000Y-65309000D03*
X84580000Y-67309000D03*
X84580000Y-69309000D03*
X84580000Y-71309000D03*
X84580000Y-73309000D03*
X68580000Y-73309000D03*
X68580000Y-71309000D03*
X68580000Y-69309000D03*
X68580000Y-67309000D03*
X68580000Y-65309000D03*
X68580000Y-63309000D03*
X68580000Y-61309000D03*
X68580000Y-59309000D03*
D11*
X89535000Y-73279000D03*
D16*
X69850000Y-59690000D03*
X69850000Y-73660000D03*
X83185000Y-71755000D03*
X56515000Y-52705000D03*
X74295000Y-48895000D03*
X81915000Y-48895000D03*
X71755000Y-50165000D03*
X81915000Y-50165000D03*
X81915000Y-60960000D03*
D17*
X89505000Y-73309000D02*
X89535000Y-73279000D01*
X84580000Y-73309000D02*
X89505000Y-73309000D01*
X68580000Y-59309000D02*
X69469000Y-59309000D01*
X69469000Y-59309000D02*
X69850000Y-59690000D01*
X68580000Y-73309000D02*
X69499000Y-73309000D01*
X69499000Y-73309000D02*
X69850000Y-73660000D01*
X84580000Y-71309000D02*
X83631000Y-71309000D01*
X83631000Y-71309000D02*
X83185000Y-71755000D01*
X56515000Y-48514000D02*
X56515000Y-52705000D01*
X74295000Y-46355000D02*
X74295000Y-48895000D01*
X81915000Y-48895000D02*
X89535000Y-48895000D01*
X71755000Y-46355000D02*
X71755000Y-50165000D01*
X81915000Y-50165000D02*
X86995000Y-50165000D01*
X88265000Y-51435000D02*
X89535000Y-51435000D01*
X86995000Y-50165000D02*
X88265000Y-51435000D01*
X75565000Y-52705000D02*
X74295000Y-53975000D01*
X75565000Y-51435000D02*
X75565000Y-52705000D01*
X89535000Y-53975000D02*
X86995000Y-51435000D01*
X86995000Y-51435000D02*
X75565000Y-51435000D01*
X76835000Y-52070000D02*
X76835000Y-53975000D01*
X85725000Y-52070000D02*
X76835000Y-52070000D01*
X88685001Y-55030001D02*
X85725000Y-52070000D01*
X89535000Y-56515000D02*
X88685001Y-55665001D01*
X88685001Y-55665001D02*
X88685001Y-55030001D01*
X89535000Y-59055000D02*
X86995000Y-56515000D01*
X86995000Y-56515000D02*
X86995000Y-54610000D01*
X85234999Y-52849999D02*
X79519999Y-52849999D01*
X86995000Y-54610000D02*
X85234999Y-52849999D01*
X79375000Y-52994998D02*
X79375000Y-53975000D01*
X79519999Y-52849999D02*
X79375000Y-52994998D01*
X88685001Y-60745001D02*
X81915000Y-53975000D01*
X89535000Y-61595000D02*
X88685001Y-60745001D01*
X68866000Y-61595000D02*
X68580000Y-61309000D01*
X68080000Y-61309000D02*
X68580000Y-61309000D01*
X68676000Y-65405000D02*
X68580000Y-65309000D01*
X69080000Y-65309000D02*
X68580000Y-65309000D01*
X71755000Y-62634000D02*
X69080000Y-65309000D01*
X71755000Y-53975000D02*
X71755000Y-62634000D01*
X68080000Y-63309000D02*
X68580000Y-63309000D01*
X70575001Y-55335001D02*
X70014999Y-54774999D01*
X70014999Y-54774999D02*
X69215000Y-53975000D01*
X69830000Y-63309000D02*
X70575001Y-62563999D01*
X70575001Y-62563999D02*
X70575001Y-55335001D01*
X68580000Y-63309000D02*
X69830000Y-63309000D01*
X67254990Y-61233990D02*
X67254990Y-48315010D01*
X67330000Y-61309000D02*
X67254990Y-61233990D01*
X68415001Y-47154999D02*
X69215000Y-46355000D01*
X67254990Y-48315010D02*
X68415001Y-47154999D01*
X68580000Y-61309000D02*
X67330000Y-61309000D01*
X81915000Y-61144000D02*
X81915000Y-60960000D01*
X84580000Y-63309000D02*
X84080000Y-63309000D01*
X84080000Y-63309000D02*
X81915000Y-61144000D01*
X69080000Y-67309000D02*
X68580000Y-67309000D01*
X73169999Y-52560001D02*
X73169999Y-63219001D01*
X73169999Y-63219001D02*
X69080000Y-67309000D01*
X79375000Y-46355000D02*
X73169999Y-52560001D01*
D18*
G36*
X91313000Y-77978000D02*
G01*
X46482000Y-77978000D01*
X46482000Y-76956000D01*
X54076928Y-76956000D01*
X54089188Y-77080482D01*
X54125498Y-77200180D01*
X54184463Y-77310494D01*
X54263815Y-77407185D01*
X54360506Y-77486537D01*
X54470820Y-77545502D01*
X54590518Y-77581812D01*
X54715000Y-77594072D01*
X56229250Y-77591000D01*
X56388000Y-77432250D01*
X56388000Y-73533000D01*
X56642000Y-73533000D01*
X56642000Y-77432250D01*
X56800750Y-77591000D01*
X58315000Y-77594072D01*
X58439482Y-77581812D01*
X58559180Y-77545502D01*
X58669494Y-77486537D01*
X58766185Y-77407185D01*
X58845537Y-77310494D01*
X58904502Y-77200180D01*
X58940812Y-77080482D01*
X58953072Y-76956000D01*
X58950000Y-73691750D01*
X58791250Y-73533000D01*
X56642000Y-73533000D01*
X56388000Y-73533000D01*
X54238750Y-73533000D01*
X54080000Y-73691750D01*
X54076928Y-76956000D01*
X46482000Y-76956000D01*
X46482000Y-69856000D01*
X54076928Y-69856000D01*
X54080000Y-73120250D01*
X54238750Y-73279000D01*
X56388000Y-73279000D01*
X56388000Y-69379750D01*
X56642000Y-69379750D01*
X56642000Y-73279000D01*
X58791250Y-73279000D01*
X58950000Y-73120250D01*
X58953072Y-69856000D01*
X58940812Y-69731518D01*
X58904502Y-69611820D01*
X58845537Y-69501506D01*
X58766185Y-69404815D01*
X58669494Y-69325463D01*
X58559180Y-69266498D01*
X58439482Y-69230188D01*
X58315000Y-69217928D01*
X56800750Y-69221000D01*
X56642000Y-69379750D01*
X56388000Y-69379750D01*
X56229250Y-69221000D01*
X54715000Y-69217928D01*
X54590518Y-69230188D01*
X54470820Y-69266498D01*
X54360506Y-69325463D01*
X54263815Y-69404815D01*
X54184463Y-69501506D01*
X54125498Y-69611820D01*
X54089188Y-69731518D01*
X54076928Y-69856000D01*
X46482000Y-69856000D01*
X46482000Y-44964000D01*
X54076928Y-44964000D01*
X54076928Y-52064000D01*
X54089188Y-52188482D01*
X54125498Y-52308180D01*
X54184463Y-52418494D01*
X54263815Y-52515185D01*
X54360506Y-52594537D01*
X54470820Y-52653502D01*
X54590518Y-52689812D01*
X54715000Y-52702072D01*
X55480000Y-52702072D01*
X55480000Y-52806939D01*
X55519774Y-53006898D01*
X55597795Y-53195256D01*
X55711063Y-53364774D01*
X55855226Y-53508937D01*
X56024744Y-53622205D01*
X56213102Y-53700226D01*
X56413061Y-53740000D01*
X56616939Y-53740000D01*
X56816898Y-53700226D01*
X57005256Y-53622205D01*
X57174774Y-53508937D01*
X57318937Y-53364774D01*
X57432205Y-53195256D01*
X57510226Y-53006898D01*
X57550000Y-52806939D01*
X57550000Y-52702072D01*
X58315000Y-52702072D01*
X58439482Y-52689812D01*
X58559180Y-52653502D01*
X58669494Y-52594537D01*
X58766185Y-52515185D01*
X58845537Y-52418494D01*
X58904502Y-52308180D01*
X58940812Y-52188482D01*
X58953072Y-52064000D01*
X58953072Y-48315010D01*
X66491314Y-48315010D01*
X66494991Y-48352342D01*
X66494990Y-61196668D01*
X66491314Y-61233990D01*
X66494990Y-61271312D01*
X66494990Y-61271322D01*
X66505987Y-61382975D01*
X66544118Y-61508677D01*
X66549444Y-61526236D01*
X66620016Y-61658266D01*
X66659861Y-61706816D01*
X66714989Y-61773991D01*
X66743993Y-61797794D01*
X66766196Y-61819997D01*
X66789999Y-61849001D01*
X66905724Y-61943974D01*
X67037753Y-62014546D01*
X67181014Y-62058003D01*
X67230398Y-62062867D01*
X67273551Y-62115449D01*
X67446377Y-62257284D01*
X67543132Y-62309000D01*
X67446377Y-62360716D01*
X67273551Y-62502551D01*
X67131716Y-62675377D01*
X67026324Y-62872553D01*
X66961423Y-63086501D01*
X66939509Y-63309000D01*
X66961423Y-63531499D01*
X67026324Y-63745447D01*
X67131716Y-63942623D01*
X67273551Y-64115449D01*
X67446377Y-64257284D01*
X67543132Y-64309000D01*
X67446377Y-64360716D01*
X67273551Y-64502551D01*
X67131716Y-64675377D01*
X67026324Y-64872553D01*
X66961423Y-65086501D01*
X66939509Y-65309000D01*
X66961423Y-65531499D01*
X67026324Y-65745447D01*
X67131716Y-65942623D01*
X67273551Y-66115449D01*
X67446377Y-66257284D01*
X67543132Y-66309000D01*
X67446377Y-66360716D01*
X67273551Y-66502551D01*
X67131716Y-66675377D01*
X67026324Y-66872553D01*
X66961423Y-67086501D01*
X66939509Y-67309000D01*
X66961423Y-67531499D01*
X67026324Y-67745447D01*
X67131716Y-67942623D01*
X67273551Y-68115449D01*
X67446377Y-68257284D01*
X67543132Y-68309000D01*
X67446377Y-68360716D01*
X67273551Y-68502551D01*
X67131716Y-68675377D01*
X67026324Y-68872553D01*
X66961423Y-69086501D01*
X66939509Y-69309000D01*
X66961423Y-69531499D01*
X67026324Y-69745447D01*
X67131716Y-69942623D01*
X67273551Y-70115449D01*
X67446377Y-70257284D01*
X67543132Y-70309000D01*
X67446377Y-70360716D01*
X67273551Y-70502551D01*
X67131716Y-70675377D01*
X67026324Y-70872553D01*
X66961423Y-71086501D01*
X66939509Y-71309000D01*
X66961423Y-71531499D01*
X67026324Y-71745447D01*
X67131716Y-71942623D01*
X67273551Y-72115449D01*
X67446377Y-72257284D01*
X67543132Y-72309000D01*
X67446377Y-72360716D01*
X67273551Y-72502551D01*
X67131716Y-72675377D01*
X67026324Y-72872553D01*
X66961423Y-73086501D01*
X66939509Y-73309000D01*
X66961423Y-73531499D01*
X67026324Y-73745447D01*
X67131716Y-73942623D01*
X67273551Y-74115449D01*
X67446377Y-74257284D01*
X67643553Y-74362676D01*
X67857501Y-74427577D01*
X68024248Y-74444000D01*
X69135752Y-74444000D01*
X69167192Y-74440903D01*
X69190226Y-74463937D01*
X69359744Y-74577205D01*
X69548102Y-74655226D01*
X69748061Y-74695000D01*
X69951939Y-74695000D01*
X70151898Y-74655226D01*
X70340256Y-74577205D01*
X70509774Y-74463937D01*
X70653937Y-74319774D01*
X70767205Y-74150256D01*
X70845226Y-73961898D01*
X70885000Y-73761939D01*
X70885000Y-73558061D01*
X70845226Y-73358102D01*
X70767205Y-73169744D01*
X70653937Y-73000226D01*
X70509774Y-72856063D01*
X70340256Y-72742795D01*
X70151898Y-72664774D01*
X69993769Y-72633320D01*
X69886449Y-72502551D01*
X69713623Y-72360716D01*
X69616868Y-72309000D01*
X69713623Y-72257284D01*
X69886449Y-72115449D01*
X70028284Y-71942623D01*
X70133676Y-71745447D01*
X70161701Y-71653061D01*
X82150000Y-71653061D01*
X82150000Y-71856939D01*
X82189774Y-72056898D01*
X82267795Y-72245256D01*
X82381063Y-72414774D01*
X82525226Y-72558937D01*
X82694744Y-72672205D01*
X82883102Y-72750226D01*
X83071661Y-72787732D01*
X83026324Y-72872553D01*
X82961423Y-73086501D01*
X82939509Y-73309000D01*
X82961423Y-73531499D01*
X83026324Y-73745447D01*
X83131716Y-73942623D01*
X83273551Y-74115449D01*
X83446377Y-74257284D01*
X83643553Y-74362676D01*
X83857501Y-74427577D01*
X84024248Y-74444000D01*
X85135752Y-74444000D01*
X85302499Y-74427577D01*
X85516447Y-74362676D01*
X85713623Y-74257284D01*
X85886449Y-74115449D01*
X85924569Y-74069000D01*
X88046928Y-74069000D01*
X88046928Y-74129000D01*
X88059188Y-74253482D01*
X88095498Y-74373180D01*
X88154463Y-74483494D01*
X88233815Y-74580185D01*
X88330506Y-74659537D01*
X88440820Y-74718502D01*
X88560518Y-74754812D01*
X88685000Y-74767072D01*
X90385000Y-74767072D01*
X90509482Y-74754812D01*
X90629180Y-74718502D01*
X90739494Y-74659537D01*
X90836185Y-74580185D01*
X90915537Y-74483494D01*
X90974502Y-74373180D01*
X91010812Y-74253482D01*
X91023072Y-74129000D01*
X91023072Y-72429000D01*
X91010812Y-72304518D01*
X90974502Y-72184820D01*
X90915537Y-72074506D01*
X90836185Y-71977815D01*
X90739494Y-71898463D01*
X90629180Y-71839498D01*
X90509482Y-71803188D01*
X90385000Y-71790928D01*
X88685000Y-71790928D01*
X88560518Y-71803188D01*
X88440820Y-71839498D01*
X88330506Y-71898463D01*
X88233815Y-71977815D01*
X88154463Y-72074506D01*
X88095498Y-72184820D01*
X88059188Y-72304518D01*
X88046928Y-72429000D01*
X88046928Y-72549000D01*
X85924569Y-72549000D01*
X85886449Y-72502551D01*
X85713623Y-72360716D01*
X85616868Y-72309000D01*
X85713623Y-72257284D01*
X85886449Y-72115449D01*
X86028284Y-71942623D01*
X86133676Y-71745447D01*
X86198577Y-71531499D01*
X86220491Y-71309000D01*
X86198577Y-71086501D01*
X86133676Y-70872553D01*
X86028284Y-70675377D01*
X85886449Y-70502551D01*
X85713623Y-70360716D01*
X85616868Y-70309000D01*
X85713623Y-70257284D01*
X85886449Y-70115449D01*
X86028284Y-69942623D01*
X86133676Y-69745447D01*
X86198577Y-69531499D01*
X86220491Y-69309000D01*
X86198577Y-69086501D01*
X86133676Y-68872553D01*
X86028284Y-68675377D01*
X85886449Y-68502551D01*
X85713623Y-68360716D01*
X85616868Y-68309000D01*
X85713623Y-68257284D01*
X85886449Y-68115449D01*
X86028284Y-67942623D01*
X86133676Y-67745447D01*
X86198577Y-67531499D01*
X86220491Y-67309000D01*
X86198577Y-67086501D01*
X86182011Y-67031890D01*
X88093524Y-67031890D01*
X88138175Y-67179099D01*
X88263359Y-67441920D01*
X88437412Y-67675269D01*
X88653645Y-67870178D01*
X88903748Y-68019157D01*
X89178109Y-68116481D01*
X89408000Y-67995814D01*
X89408000Y-66802000D01*
X89662000Y-66802000D01*
X89662000Y-67995814D01*
X89891891Y-68116481D01*
X90166252Y-68019157D01*
X90416355Y-67870178D01*
X90632588Y-67675269D01*
X90806641Y-67441920D01*
X90931825Y-67179099D01*
X90976476Y-67031890D01*
X90855155Y-66802000D01*
X89662000Y-66802000D01*
X89408000Y-66802000D01*
X88214845Y-66802000D01*
X88093524Y-67031890D01*
X86182011Y-67031890D01*
X86133676Y-66872553D01*
X86028284Y-66675377D01*
X85886449Y-66502551D01*
X85713623Y-66360716D01*
X85623473Y-66312530D01*
X85631678Y-66309003D01*
X85816169Y-66182161D01*
X85972369Y-66021764D01*
X86094276Y-65833976D01*
X86174119Y-65610874D01*
X86047954Y-65436000D01*
X84707000Y-65436000D01*
X84707000Y-65456000D01*
X84453000Y-65456000D01*
X84453000Y-65436000D01*
X83112046Y-65436000D01*
X82985881Y-65610874D01*
X83065724Y-65833976D01*
X83187631Y-66021764D01*
X83343831Y-66182161D01*
X83528322Y-66309003D01*
X83536527Y-66312530D01*
X83446377Y-66360716D01*
X83273551Y-66502551D01*
X83131716Y-66675377D01*
X83026324Y-66872553D01*
X82961423Y-67086501D01*
X82939509Y-67309000D01*
X82961423Y-67531499D01*
X83026324Y-67745447D01*
X83131716Y-67942623D01*
X83273551Y-68115449D01*
X83446377Y-68257284D01*
X83543132Y-68309000D01*
X83446377Y-68360716D01*
X83273551Y-68502551D01*
X83131716Y-68675377D01*
X83026324Y-68872553D01*
X82961423Y-69086501D01*
X82939509Y-69309000D01*
X82961423Y-69531499D01*
X83026324Y-69745447D01*
X83131716Y-69942623D01*
X83273551Y-70115449D01*
X83446377Y-70257284D01*
X83543132Y-70309000D01*
X83446377Y-70360716D01*
X83273551Y-70502551D01*
X83131716Y-70675377D01*
X83107865Y-70720000D01*
X83083061Y-70720000D01*
X82883102Y-70759774D01*
X82694744Y-70837795D01*
X82525226Y-70951063D01*
X82381063Y-71095226D01*
X82267795Y-71264744D01*
X82189774Y-71453102D01*
X82150000Y-71653061D01*
X70161701Y-71653061D01*
X70198577Y-71531499D01*
X70220491Y-71309000D01*
X70198577Y-71086501D01*
X70133676Y-70872553D01*
X70028284Y-70675377D01*
X69886449Y-70502551D01*
X69713623Y-70360716D01*
X69616868Y-70309000D01*
X69713623Y-70257284D01*
X69886449Y-70115449D01*
X70028284Y-69942623D01*
X70133676Y-69745447D01*
X70198577Y-69531499D01*
X70220491Y-69309000D01*
X70198577Y-69086501D01*
X70133676Y-68872553D01*
X70028284Y-68675377D01*
X69886449Y-68502551D01*
X69713623Y-68360716D01*
X69616868Y-68309000D01*
X69713623Y-68257284D01*
X69886449Y-68115449D01*
X70028284Y-67942623D01*
X70133676Y-67745447D01*
X70198577Y-67531499D01*
X70220491Y-67309000D01*
X70214601Y-67249200D01*
X73681002Y-63782800D01*
X73710000Y-63759002D01*
X73736331Y-63726918D01*
X73804973Y-63643278D01*
X73875545Y-63511248D01*
X73919002Y-63367987D01*
X73929999Y-63256334D01*
X73929999Y-63256325D01*
X73933675Y-63219002D01*
X73929999Y-63181679D01*
X73929999Y-55363849D01*
X74013691Y-55389236D01*
X74224508Y-55410000D01*
X74365492Y-55410000D01*
X74576309Y-55389236D01*
X74846808Y-55307182D01*
X75096101Y-55173932D01*
X75314608Y-54994608D01*
X75493932Y-54776101D01*
X75565000Y-54643142D01*
X75636068Y-54776101D01*
X75815392Y-54994608D01*
X76033899Y-55173932D01*
X76283192Y-55307182D01*
X76553691Y-55389236D01*
X76764508Y-55410000D01*
X76905492Y-55410000D01*
X77116309Y-55389236D01*
X77386808Y-55307182D01*
X77636101Y-55173932D01*
X77854608Y-54994608D01*
X78033932Y-54776101D01*
X78105000Y-54643142D01*
X78176068Y-54776101D01*
X78355392Y-54994608D01*
X78573899Y-55173932D01*
X78823192Y-55307182D01*
X79093691Y-55389236D01*
X79304508Y-55410000D01*
X79445492Y-55410000D01*
X79656309Y-55389236D01*
X79926808Y-55307182D01*
X80176101Y-55173932D01*
X80394608Y-54994608D01*
X80573932Y-54776101D01*
X80645000Y-54643142D01*
X80716068Y-54776101D01*
X80895392Y-54994608D01*
X81113899Y-55173932D01*
X81363192Y-55307182D01*
X81633691Y-55389236D01*
X81844508Y-55410000D01*
X81985492Y-55410000D01*
X82196309Y-55389236D01*
X82240907Y-55375708D01*
X85039198Y-58174000D01*
X84024248Y-58174000D01*
X83857501Y-58190423D01*
X83643553Y-58255324D01*
X83446377Y-58360716D01*
X83273551Y-58502551D01*
X83131716Y-58675377D01*
X83026324Y-58872553D01*
X82961423Y-59086501D01*
X82939509Y-59309000D01*
X82961423Y-59531499D01*
X83026324Y-59745447D01*
X83131716Y-59942623D01*
X83273551Y-60115449D01*
X83446377Y-60257284D01*
X83543132Y-60309000D01*
X83446377Y-60360716D01*
X83273551Y-60502551D01*
X83131716Y-60675377D01*
X83026324Y-60872553D01*
X82961423Y-61086501D01*
X82958812Y-61113011D01*
X82942989Y-61097187D01*
X82950000Y-61061939D01*
X82950000Y-60858061D01*
X82910226Y-60658102D01*
X82832205Y-60469744D01*
X82718937Y-60300226D01*
X82574774Y-60156063D01*
X82405256Y-60042795D01*
X82216898Y-59964774D01*
X82016939Y-59925000D01*
X81813061Y-59925000D01*
X81613102Y-59964774D01*
X81424744Y-60042795D01*
X81255226Y-60156063D01*
X81111063Y-60300226D01*
X80997795Y-60469744D01*
X80919774Y-60658102D01*
X80880000Y-60858061D01*
X80880000Y-61061939D01*
X80919774Y-61261898D01*
X80997795Y-61450256D01*
X81111063Y-61619774D01*
X81255226Y-61763937D01*
X81424744Y-61877205D01*
X81613102Y-61955226D01*
X81660940Y-61964742D01*
X82945399Y-63249200D01*
X82939509Y-63309000D01*
X82961423Y-63531499D01*
X83026324Y-63745447D01*
X83131716Y-63942623D01*
X83273551Y-64115449D01*
X83446377Y-64257284D01*
X83536527Y-64305470D01*
X83528322Y-64308997D01*
X83343831Y-64435839D01*
X83187631Y-64596236D01*
X83065724Y-64784024D01*
X82985881Y-65007126D01*
X83112046Y-65182000D01*
X84453000Y-65182000D01*
X84453000Y-65162000D01*
X84707000Y-65162000D01*
X84707000Y-65182000D01*
X86047954Y-65182000D01*
X86174119Y-65007126D01*
X86094276Y-64784024D01*
X85972369Y-64596236D01*
X85816169Y-64435839D01*
X85631678Y-64308997D01*
X85623473Y-64305470D01*
X85713623Y-64257284D01*
X85886449Y-64115449D01*
X86028284Y-63942623D01*
X86133676Y-63745447D01*
X86198577Y-63531499D01*
X86220491Y-63309000D01*
X86198577Y-63086501D01*
X86133676Y-62872553D01*
X86028284Y-62675377D01*
X85886449Y-62502551D01*
X85713623Y-62360716D01*
X85616868Y-62309000D01*
X85713623Y-62257284D01*
X85886449Y-62115449D01*
X86028284Y-61942623D01*
X86133676Y-61745447D01*
X86198577Y-61531499D01*
X86220491Y-61309000D01*
X86198577Y-61086501D01*
X86133676Y-60872553D01*
X86028284Y-60675377D01*
X85886449Y-60502551D01*
X85713623Y-60360716D01*
X85616868Y-60309000D01*
X85713623Y-60257284D01*
X85886449Y-60115449D01*
X86028284Y-59942623D01*
X86133676Y-59745447D01*
X86198577Y-59531499D01*
X86216340Y-59351142D01*
X88094203Y-61229005D01*
X88071487Y-61303889D01*
X88042815Y-61595000D01*
X88071487Y-61886111D01*
X88156401Y-62166034D01*
X88294294Y-62424014D01*
X88479866Y-62650134D01*
X88705986Y-62835706D01*
X88760791Y-62865000D01*
X88705986Y-62894294D01*
X88479866Y-63079866D01*
X88294294Y-63305986D01*
X88156401Y-63563966D01*
X88071487Y-63843889D01*
X88042815Y-64135000D01*
X88071487Y-64426111D01*
X88156401Y-64706034D01*
X88294294Y-64964014D01*
X88479866Y-65190134D01*
X88705986Y-65375706D01*
X88770523Y-65410201D01*
X88653645Y-65479822D01*
X88437412Y-65674731D01*
X88263359Y-65908080D01*
X88138175Y-66170901D01*
X88093524Y-66318110D01*
X88214845Y-66548000D01*
X89408000Y-66548000D01*
X89408000Y-66528000D01*
X89662000Y-66528000D01*
X89662000Y-66548000D01*
X90855155Y-66548000D01*
X90976476Y-66318110D01*
X90931825Y-66170901D01*
X90806641Y-65908080D01*
X90632588Y-65674731D01*
X90416355Y-65479822D01*
X90299477Y-65410201D01*
X90364014Y-65375706D01*
X90590134Y-65190134D01*
X90775706Y-64964014D01*
X90913599Y-64706034D01*
X90998513Y-64426111D01*
X91027185Y-64135000D01*
X90998513Y-63843889D01*
X90913599Y-63563966D01*
X90775706Y-63305986D01*
X90590134Y-63079866D01*
X90364014Y-62894294D01*
X90309209Y-62865000D01*
X90364014Y-62835706D01*
X90590134Y-62650134D01*
X90775706Y-62424014D01*
X90913599Y-62166034D01*
X90998513Y-61886111D01*
X91027185Y-61595000D01*
X90998513Y-61303889D01*
X90913599Y-61023966D01*
X90775706Y-60765986D01*
X90590134Y-60539866D01*
X90364014Y-60354294D01*
X90309209Y-60325000D01*
X90364014Y-60295706D01*
X90590134Y-60110134D01*
X90775706Y-59884014D01*
X90913599Y-59626034D01*
X90998513Y-59346111D01*
X91027185Y-59055000D01*
X90998513Y-58763889D01*
X90913599Y-58483966D01*
X90775706Y-58225986D01*
X90590134Y-57999866D01*
X90364014Y-57814294D01*
X90309209Y-57785000D01*
X90364014Y-57755706D01*
X90590134Y-57570134D01*
X90775706Y-57344014D01*
X90913599Y-57086034D01*
X90998513Y-56806111D01*
X91027185Y-56515000D01*
X90998513Y-56223889D01*
X90913599Y-55943966D01*
X90775706Y-55685986D01*
X90590134Y-55459866D01*
X90364014Y-55274294D01*
X90309209Y-55245000D01*
X90364014Y-55215706D01*
X90590134Y-55030134D01*
X90775706Y-54804014D01*
X90913599Y-54546034D01*
X90998513Y-54266111D01*
X91027185Y-53975000D01*
X90998513Y-53683889D01*
X90913599Y-53403966D01*
X90775706Y-53145986D01*
X90590134Y-52919866D01*
X90364014Y-52734294D01*
X90309209Y-52705000D01*
X90364014Y-52675706D01*
X90590134Y-52490134D01*
X90775706Y-52264014D01*
X90913599Y-52006034D01*
X90998513Y-51726111D01*
X91027185Y-51435000D01*
X90998513Y-51143889D01*
X90913599Y-50863966D01*
X90775706Y-50605986D01*
X90590134Y-50379866D01*
X90560313Y-50355393D01*
X90629180Y-50334502D01*
X90739494Y-50275537D01*
X90836185Y-50196185D01*
X90915537Y-50099494D01*
X90974502Y-49989180D01*
X91010812Y-49869482D01*
X91023072Y-49745000D01*
X91023072Y-48045000D01*
X91010812Y-47920518D01*
X90974502Y-47800820D01*
X90915537Y-47690506D01*
X90836185Y-47593815D01*
X90739494Y-47514463D01*
X90629180Y-47455498D01*
X90509482Y-47419188D01*
X90385000Y-47406928D01*
X88685000Y-47406928D01*
X88560518Y-47419188D01*
X88440820Y-47455498D01*
X88330506Y-47514463D01*
X88233815Y-47593815D01*
X88154463Y-47690506D01*
X88095498Y-47800820D01*
X88059188Y-47920518D01*
X88046928Y-48045000D01*
X88046928Y-48135000D01*
X82618711Y-48135000D01*
X82574774Y-48091063D01*
X82405256Y-47977795D01*
X82216898Y-47899774D01*
X82016939Y-47860000D01*
X81813061Y-47860000D01*
X81613102Y-47899774D01*
X81424744Y-47977795D01*
X81255226Y-48091063D01*
X81111063Y-48235226D01*
X80997795Y-48404744D01*
X80919774Y-48593102D01*
X80880000Y-48793061D01*
X80880000Y-48996939D01*
X80919774Y-49196898D01*
X80997795Y-49385256D01*
X81094510Y-49530000D01*
X80997795Y-49674744D01*
X80919774Y-49863102D01*
X80880000Y-50063061D01*
X80880000Y-50266939D01*
X80919774Y-50466898D01*
X80997795Y-50655256D01*
X81010987Y-50675000D01*
X76129801Y-50675000D01*
X79049094Y-47755708D01*
X79093691Y-47769236D01*
X79304508Y-47790000D01*
X79445492Y-47790000D01*
X79656309Y-47769236D01*
X79926808Y-47687182D01*
X80176101Y-47553932D01*
X80394608Y-47374608D01*
X80573932Y-47156101D01*
X80645000Y-47023142D01*
X80716068Y-47156101D01*
X80895392Y-47374608D01*
X81113899Y-47553932D01*
X81363192Y-47687182D01*
X81633691Y-47769236D01*
X81844508Y-47790000D01*
X81985492Y-47790000D01*
X82196309Y-47769236D01*
X82466808Y-47687182D01*
X82716101Y-47553932D01*
X82934608Y-47374608D01*
X83027419Y-47261518D01*
X83029188Y-47279482D01*
X83065498Y-47399180D01*
X83124463Y-47509494D01*
X83203815Y-47606185D01*
X83300506Y-47685537D01*
X83410820Y-47744502D01*
X83530518Y-47780812D01*
X83655000Y-47793072D01*
X84169250Y-47790000D01*
X84328000Y-47631250D01*
X84328000Y-46482000D01*
X84582000Y-46482000D01*
X84582000Y-47631250D01*
X84740750Y-47790000D01*
X85255000Y-47793072D01*
X85379482Y-47780812D01*
X85499180Y-47744502D01*
X85609494Y-47685537D01*
X85706185Y-47606185D01*
X85785537Y-47509494D01*
X85844502Y-47399180D01*
X85880812Y-47279482D01*
X85893072Y-47155000D01*
X85890000Y-46640750D01*
X85731250Y-46482000D01*
X84582000Y-46482000D01*
X84328000Y-46482000D01*
X84308000Y-46482000D01*
X84308000Y-46228000D01*
X84328000Y-46228000D01*
X84328000Y-45078750D01*
X84582000Y-45078750D01*
X84582000Y-46228000D01*
X85731250Y-46228000D01*
X85890000Y-46069250D01*
X85893072Y-45555000D01*
X85880812Y-45430518D01*
X85844502Y-45310820D01*
X85785537Y-45200506D01*
X85706185Y-45103815D01*
X85609494Y-45024463D01*
X85499180Y-44965498D01*
X85379482Y-44929188D01*
X85255000Y-44916928D01*
X84740750Y-44920000D01*
X84582000Y-45078750D01*
X84328000Y-45078750D01*
X84169250Y-44920000D01*
X83655000Y-44916928D01*
X83530518Y-44929188D01*
X83410820Y-44965498D01*
X83300506Y-45024463D01*
X83203815Y-45103815D01*
X83124463Y-45200506D01*
X83065498Y-45310820D01*
X83029188Y-45430518D01*
X83027419Y-45448482D01*
X82934608Y-45335392D01*
X82716101Y-45156068D01*
X82466808Y-45022818D01*
X82196309Y-44940764D01*
X81985492Y-44920000D01*
X81844508Y-44920000D01*
X81633691Y-44940764D01*
X81363192Y-45022818D01*
X81113899Y-45156068D01*
X80895392Y-45335392D01*
X80716068Y-45553899D01*
X80645000Y-45686858D01*
X80573932Y-45553899D01*
X80394608Y-45335392D01*
X80176101Y-45156068D01*
X79926808Y-45022818D01*
X79656309Y-44940764D01*
X79445492Y-44920000D01*
X79304508Y-44920000D01*
X79093691Y-44940764D01*
X78823192Y-45022818D01*
X78573899Y-45156068D01*
X78355392Y-45335392D01*
X78176068Y-45553899D01*
X78105000Y-45686858D01*
X78033932Y-45553899D01*
X77854608Y-45335392D01*
X77636101Y-45156068D01*
X77386808Y-45022818D01*
X77116309Y-44940764D01*
X76905492Y-44920000D01*
X76764508Y-44920000D01*
X76553691Y-44940764D01*
X76283192Y-45022818D01*
X76033899Y-45156068D01*
X75815392Y-45335392D01*
X75636068Y-45553899D01*
X75565000Y-45686858D01*
X75493932Y-45553899D01*
X75314608Y-45335392D01*
X75096101Y-45156068D01*
X74846808Y-45022818D01*
X74576309Y-44940764D01*
X74365492Y-44920000D01*
X74224508Y-44920000D01*
X74013691Y-44940764D01*
X73743192Y-45022818D01*
X73493899Y-45156068D01*
X73275392Y-45335392D01*
X73096068Y-45553899D01*
X73025000Y-45686858D01*
X72953932Y-45553899D01*
X72774608Y-45335392D01*
X72556101Y-45156068D01*
X72306808Y-45022818D01*
X72036309Y-44940764D01*
X71825492Y-44920000D01*
X71684508Y-44920000D01*
X71473691Y-44940764D01*
X71203192Y-45022818D01*
X70953899Y-45156068D01*
X70735392Y-45335392D01*
X70556068Y-45553899D01*
X70485000Y-45686858D01*
X70413932Y-45553899D01*
X70234608Y-45335392D01*
X70016101Y-45156068D01*
X69766808Y-45022818D01*
X69496309Y-44940764D01*
X69285492Y-44920000D01*
X69144508Y-44920000D01*
X68933691Y-44940764D01*
X68663192Y-45022818D01*
X68413899Y-45156068D01*
X68195392Y-45335392D01*
X68016068Y-45553899D01*
X67882818Y-45803192D01*
X67800764Y-46073691D01*
X67773057Y-46355000D01*
X67800764Y-46636309D01*
X67814292Y-46680906D01*
X66743988Y-47751211D01*
X66714990Y-47775009D01*
X66691192Y-47804007D01*
X66691191Y-47804008D01*
X66620016Y-47890734D01*
X66549444Y-48022764D01*
X66528727Y-48091063D01*
X66505988Y-48166024D01*
X66494991Y-48277677D01*
X66491314Y-48315010D01*
X58953072Y-48315010D01*
X58953072Y-44964000D01*
X58940812Y-44839518D01*
X58904502Y-44719820D01*
X58845537Y-44609506D01*
X58766185Y-44512815D01*
X58669494Y-44433463D01*
X58559180Y-44374498D01*
X58439482Y-44338188D01*
X58315000Y-44325928D01*
X54715000Y-44325928D01*
X54590518Y-44338188D01*
X54470820Y-44374498D01*
X54360506Y-44433463D01*
X54263815Y-44512815D01*
X54184463Y-44609506D01*
X54125498Y-44719820D01*
X54089188Y-44839518D01*
X54076928Y-44964000D01*
X46482000Y-44964000D01*
X46482000Y-43942000D01*
X91313000Y-43942000D01*
X91313000Y-77978000D01*
X91313000Y-77978000D01*
G37*
X91313000Y-77978000D02*
X46482000Y-77978000D01*
X46482000Y-76956000D01*
X54076928Y-76956000D01*
X54089188Y-77080482D01*
X54125498Y-77200180D01*
X54184463Y-77310494D01*
X54263815Y-77407185D01*
X54360506Y-77486537D01*
X54470820Y-77545502D01*
X54590518Y-77581812D01*
X54715000Y-77594072D01*
X56229250Y-77591000D01*
X56388000Y-77432250D01*
X56388000Y-73533000D01*
X56642000Y-73533000D01*
X56642000Y-77432250D01*
X56800750Y-77591000D01*
X58315000Y-77594072D01*
X58439482Y-77581812D01*
X58559180Y-77545502D01*
X58669494Y-77486537D01*
X58766185Y-77407185D01*
X58845537Y-77310494D01*
X58904502Y-77200180D01*
X58940812Y-77080482D01*
X58953072Y-76956000D01*
X58950000Y-73691750D01*
X58791250Y-73533000D01*
X56642000Y-73533000D01*
X56388000Y-73533000D01*
X54238750Y-73533000D01*
X54080000Y-73691750D01*
X54076928Y-76956000D01*
X46482000Y-76956000D01*
X46482000Y-69856000D01*
X54076928Y-69856000D01*
X54080000Y-73120250D01*
X54238750Y-73279000D01*
X56388000Y-73279000D01*
X56388000Y-69379750D01*
X56642000Y-69379750D01*
X56642000Y-73279000D01*
X58791250Y-73279000D01*
X58950000Y-73120250D01*
X58953072Y-69856000D01*
X58940812Y-69731518D01*
X58904502Y-69611820D01*
X58845537Y-69501506D01*
X58766185Y-69404815D01*
X58669494Y-69325463D01*
X58559180Y-69266498D01*
X58439482Y-69230188D01*
X58315000Y-69217928D01*
X56800750Y-69221000D01*
X56642000Y-69379750D01*
X56388000Y-69379750D01*
X56229250Y-69221000D01*
X54715000Y-69217928D01*
X54590518Y-69230188D01*
X54470820Y-69266498D01*
X54360506Y-69325463D01*
X54263815Y-69404815D01*
X54184463Y-69501506D01*
X54125498Y-69611820D01*
X54089188Y-69731518D01*
X54076928Y-69856000D01*
X46482000Y-69856000D01*
X46482000Y-44964000D01*
X54076928Y-44964000D01*
X54076928Y-52064000D01*
X54089188Y-52188482D01*
X54125498Y-52308180D01*
X54184463Y-52418494D01*
X54263815Y-52515185D01*
X54360506Y-52594537D01*
X54470820Y-52653502D01*
X54590518Y-52689812D01*
X54715000Y-52702072D01*
X55480000Y-52702072D01*
X55480000Y-52806939D01*
X55519774Y-53006898D01*
X55597795Y-53195256D01*
X55711063Y-53364774D01*
X55855226Y-53508937D01*
X56024744Y-53622205D01*
X56213102Y-53700226D01*
X56413061Y-53740000D01*
X56616939Y-53740000D01*
X56816898Y-53700226D01*
X57005256Y-53622205D01*
X57174774Y-53508937D01*
X57318937Y-53364774D01*
X57432205Y-53195256D01*
X57510226Y-53006898D01*
X57550000Y-52806939D01*
X57550000Y-52702072D01*
X58315000Y-52702072D01*
X58439482Y-52689812D01*
X58559180Y-52653502D01*
X58669494Y-52594537D01*
X58766185Y-52515185D01*
X58845537Y-52418494D01*
X58904502Y-52308180D01*
X58940812Y-52188482D01*
X58953072Y-52064000D01*
X58953072Y-48315010D01*
X66491314Y-48315010D01*
X66494991Y-48352342D01*
X66494990Y-61196668D01*
X66491314Y-61233990D01*
X66494990Y-61271312D01*
X66494990Y-61271322D01*
X66505987Y-61382975D01*
X66544118Y-61508677D01*
X66549444Y-61526236D01*
X66620016Y-61658266D01*
X66659861Y-61706816D01*
X66714989Y-61773991D01*
X66743993Y-61797794D01*
X66766196Y-61819997D01*
X66789999Y-61849001D01*
X66905724Y-61943974D01*
X67037753Y-62014546D01*
X67181014Y-62058003D01*
X67230398Y-62062867D01*
X67273551Y-62115449D01*
X67446377Y-62257284D01*
X67543132Y-62309000D01*
X67446377Y-62360716D01*
X67273551Y-62502551D01*
X67131716Y-62675377D01*
X67026324Y-62872553D01*
X66961423Y-63086501D01*
X66939509Y-63309000D01*
X66961423Y-63531499D01*
X67026324Y-63745447D01*
X67131716Y-63942623D01*
X67273551Y-64115449D01*
X67446377Y-64257284D01*
X67543132Y-64309000D01*
X67446377Y-64360716D01*
X67273551Y-64502551D01*
X67131716Y-64675377D01*
X67026324Y-64872553D01*
X66961423Y-65086501D01*
X66939509Y-65309000D01*
X66961423Y-65531499D01*
X67026324Y-65745447D01*
X67131716Y-65942623D01*
X67273551Y-66115449D01*
X67446377Y-66257284D01*
X67543132Y-66309000D01*
X67446377Y-66360716D01*
X67273551Y-66502551D01*
X67131716Y-66675377D01*
X67026324Y-66872553D01*
X66961423Y-67086501D01*
X66939509Y-67309000D01*
X66961423Y-67531499D01*
X67026324Y-67745447D01*
X67131716Y-67942623D01*
X67273551Y-68115449D01*
X67446377Y-68257284D01*
X67543132Y-68309000D01*
X67446377Y-68360716D01*
X67273551Y-68502551D01*
X67131716Y-68675377D01*
X67026324Y-68872553D01*
X66961423Y-69086501D01*
X66939509Y-69309000D01*
X66961423Y-69531499D01*
X67026324Y-69745447D01*
X67131716Y-69942623D01*
X67273551Y-70115449D01*
X67446377Y-70257284D01*
X67543132Y-70309000D01*
X67446377Y-70360716D01*
X67273551Y-70502551D01*
X67131716Y-70675377D01*
X67026324Y-70872553D01*
X66961423Y-71086501D01*
X66939509Y-71309000D01*
X66961423Y-71531499D01*
X67026324Y-71745447D01*
X67131716Y-71942623D01*
X67273551Y-72115449D01*
X67446377Y-72257284D01*
X67543132Y-72309000D01*
X67446377Y-72360716D01*
X67273551Y-72502551D01*
X67131716Y-72675377D01*
X67026324Y-72872553D01*
X66961423Y-73086501D01*
X66939509Y-73309000D01*
X66961423Y-73531499D01*
X67026324Y-73745447D01*
X67131716Y-73942623D01*
X67273551Y-74115449D01*
X67446377Y-74257284D01*
X67643553Y-74362676D01*
X67857501Y-74427577D01*
X68024248Y-74444000D01*
X69135752Y-74444000D01*
X69167192Y-74440903D01*
X69190226Y-74463937D01*
X69359744Y-74577205D01*
X69548102Y-74655226D01*
X69748061Y-74695000D01*
X69951939Y-74695000D01*
X70151898Y-74655226D01*
X70340256Y-74577205D01*
X70509774Y-74463937D01*
X70653937Y-74319774D01*
X70767205Y-74150256D01*
X70845226Y-73961898D01*
X70885000Y-73761939D01*
X70885000Y-73558061D01*
X70845226Y-73358102D01*
X70767205Y-73169744D01*
X70653937Y-73000226D01*
X70509774Y-72856063D01*
X70340256Y-72742795D01*
X70151898Y-72664774D01*
X69993769Y-72633320D01*
X69886449Y-72502551D01*
X69713623Y-72360716D01*
X69616868Y-72309000D01*
X69713623Y-72257284D01*
X69886449Y-72115449D01*
X70028284Y-71942623D01*
X70133676Y-71745447D01*
X70161701Y-71653061D01*
X82150000Y-71653061D01*
X82150000Y-71856939D01*
X82189774Y-72056898D01*
X82267795Y-72245256D01*
X82381063Y-72414774D01*
X82525226Y-72558937D01*
X82694744Y-72672205D01*
X82883102Y-72750226D01*
X83071661Y-72787732D01*
X83026324Y-72872553D01*
X82961423Y-73086501D01*
X82939509Y-73309000D01*
X82961423Y-73531499D01*
X83026324Y-73745447D01*
X83131716Y-73942623D01*
X83273551Y-74115449D01*
X83446377Y-74257284D01*
X83643553Y-74362676D01*
X83857501Y-74427577D01*
X84024248Y-74444000D01*
X85135752Y-74444000D01*
X85302499Y-74427577D01*
X85516447Y-74362676D01*
X85713623Y-74257284D01*
X85886449Y-74115449D01*
X85924569Y-74069000D01*
X88046928Y-74069000D01*
X88046928Y-74129000D01*
X88059188Y-74253482D01*
X88095498Y-74373180D01*
X88154463Y-74483494D01*
X88233815Y-74580185D01*
X88330506Y-74659537D01*
X88440820Y-74718502D01*
X88560518Y-74754812D01*
X88685000Y-74767072D01*
X90385000Y-74767072D01*
X90509482Y-74754812D01*
X90629180Y-74718502D01*
X90739494Y-74659537D01*
X90836185Y-74580185D01*
X90915537Y-74483494D01*
X90974502Y-74373180D01*
X91010812Y-74253482D01*
X91023072Y-74129000D01*
X91023072Y-72429000D01*
X91010812Y-72304518D01*
X90974502Y-72184820D01*
X90915537Y-72074506D01*
X90836185Y-71977815D01*
X90739494Y-71898463D01*
X90629180Y-71839498D01*
X90509482Y-71803188D01*
X90385000Y-71790928D01*
X88685000Y-71790928D01*
X88560518Y-71803188D01*
X88440820Y-71839498D01*
X88330506Y-71898463D01*
X88233815Y-71977815D01*
X88154463Y-72074506D01*
X88095498Y-72184820D01*
X88059188Y-72304518D01*
X88046928Y-72429000D01*
X88046928Y-72549000D01*
X85924569Y-72549000D01*
X85886449Y-72502551D01*
X85713623Y-72360716D01*
X85616868Y-72309000D01*
X85713623Y-72257284D01*
X85886449Y-72115449D01*
X86028284Y-71942623D01*
X86133676Y-71745447D01*
X86198577Y-71531499D01*
X86220491Y-71309000D01*
X86198577Y-71086501D01*
X86133676Y-70872553D01*
X86028284Y-70675377D01*
X85886449Y-70502551D01*
X85713623Y-70360716D01*
X85616868Y-70309000D01*
X85713623Y-70257284D01*
X85886449Y-70115449D01*
X86028284Y-69942623D01*
X86133676Y-69745447D01*
X86198577Y-69531499D01*
X86220491Y-69309000D01*
X86198577Y-69086501D01*
X86133676Y-68872553D01*
X86028284Y-68675377D01*
X85886449Y-68502551D01*
X85713623Y-68360716D01*
X85616868Y-68309000D01*
X85713623Y-68257284D01*
X85886449Y-68115449D01*
X86028284Y-67942623D01*
X86133676Y-67745447D01*
X86198577Y-67531499D01*
X86220491Y-67309000D01*
X86198577Y-67086501D01*
X86182011Y-67031890D01*
X88093524Y-67031890D01*
X88138175Y-67179099D01*
X88263359Y-67441920D01*
X88437412Y-67675269D01*
X88653645Y-67870178D01*
X88903748Y-68019157D01*
X89178109Y-68116481D01*
X89408000Y-67995814D01*
X89408000Y-66802000D01*
X89662000Y-66802000D01*
X89662000Y-67995814D01*
X89891891Y-68116481D01*
X90166252Y-68019157D01*
X90416355Y-67870178D01*
X90632588Y-67675269D01*
X90806641Y-67441920D01*
X90931825Y-67179099D01*
X90976476Y-67031890D01*
X90855155Y-66802000D01*
X89662000Y-66802000D01*
X89408000Y-66802000D01*
X88214845Y-66802000D01*
X88093524Y-67031890D01*
X86182011Y-67031890D01*
X86133676Y-66872553D01*
X86028284Y-66675377D01*
X85886449Y-66502551D01*
X85713623Y-66360716D01*
X85623473Y-66312530D01*
X85631678Y-66309003D01*
X85816169Y-66182161D01*
X85972369Y-66021764D01*
X86094276Y-65833976D01*
X86174119Y-65610874D01*
X86047954Y-65436000D01*
X84707000Y-65436000D01*
X84707000Y-65456000D01*
X84453000Y-65456000D01*
X84453000Y-65436000D01*
X83112046Y-65436000D01*
X82985881Y-65610874D01*
X83065724Y-65833976D01*
X83187631Y-66021764D01*
X83343831Y-66182161D01*
X83528322Y-66309003D01*
X83536527Y-66312530D01*
X83446377Y-66360716D01*
X83273551Y-66502551D01*
X83131716Y-66675377D01*
X83026324Y-66872553D01*
X82961423Y-67086501D01*
X82939509Y-67309000D01*
X82961423Y-67531499D01*
X83026324Y-67745447D01*
X83131716Y-67942623D01*
X83273551Y-68115449D01*
X83446377Y-68257284D01*
X83543132Y-68309000D01*
X83446377Y-68360716D01*
X83273551Y-68502551D01*
X83131716Y-68675377D01*
X83026324Y-68872553D01*
X82961423Y-69086501D01*
X82939509Y-69309000D01*
X82961423Y-69531499D01*
X83026324Y-69745447D01*
X83131716Y-69942623D01*
X83273551Y-70115449D01*
X83446377Y-70257284D01*
X83543132Y-70309000D01*
X83446377Y-70360716D01*
X83273551Y-70502551D01*
X83131716Y-70675377D01*
X83107865Y-70720000D01*
X83083061Y-70720000D01*
X82883102Y-70759774D01*
X82694744Y-70837795D01*
X82525226Y-70951063D01*
X82381063Y-71095226D01*
X82267795Y-71264744D01*
X82189774Y-71453102D01*
X82150000Y-71653061D01*
X70161701Y-71653061D01*
X70198577Y-71531499D01*
X70220491Y-71309000D01*
X70198577Y-71086501D01*
X70133676Y-70872553D01*
X70028284Y-70675377D01*
X69886449Y-70502551D01*
X69713623Y-70360716D01*
X69616868Y-70309000D01*
X69713623Y-70257284D01*
X69886449Y-70115449D01*
X70028284Y-69942623D01*
X70133676Y-69745447D01*
X70198577Y-69531499D01*
X70220491Y-69309000D01*
X70198577Y-69086501D01*
X70133676Y-68872553D01*
X70028284Y-68675377D01*
X69886449Y-68502551D01*
X69713623Y-68360716D01*
X69616868Y-68309000D01*
X69713623Y-68257284D01*
X69886449Y-68115449D01*
X70028284Y-67942623D01*
X70133676Y-67745447D01*
X70198577Y-67531499D01*
X70220491Y-67309000D01*
X70214601Y-67249200D01*
X73681002Y-63782800D01*
X73710000Y-63759002D01*
X73736331Y-63726918D01*
X73804973Y-63643278D01*
X73875545Y-63511248D01*
X73919002Y-63367987D01*
X73929999Y-63256334D01*
X73929999Y-63256325D01*
X73933675Y-63219002D01*
X73929999Y-63181679D01*
X73929999Y-55363849D01*
X74013691Y-55389236D01*
X74224508Y-55410000D01*
X74365492Y-55410000D01*
X74576309Y-55389236D01*
X74846808Y-55307182D01*
X75096101Y-55173932D01*
X75314608Y-54994608D01*
X75493932Y-54776101D01*
X75565000Y-54643142D01*
X75636068Y-54776101D01*
X75815392Y-54994608D01*
X76033899Y-55173932D01*
X76283192Y-55307182D01*
X76553691Y-55389236D01*
X76764508Y-55410000D01*
X76905492Y-55410000D01*
X77116309Y-55389236D01*
X77386808Y-55307182D01*
X77636101Y-55173932D01*
X77854608Y-54994608D01*
X78033932Y-54776101D01*
X78105000Y-54643142D01*
X78176068Y-54776101D01*
X78355392Y-54994608D01*
X78573899Y-55173932D01*
X78823192Y-55307182D01*
X79093691Y-55389236D01*
X79304508Y-55410000D01*
X79445492Y-55410000D01*
X79656309Y-55389236D01*
X79926808Y-55307182D01*
X80176101Y-55173932D01*
X80394608Y-54994608D01*
X80573932Y-54776101D01*
X80645000Y-54643142D01*
X80716068Y-54776101D01*
X80895392Y-54994608D01*
X81113899Y-55173932D01*
X81363192Y-55307182D01*
X81633691Y-55389236D01*
X81844508Y-55410000D01*
X81985492Y-55410000D01*
X82196309Y-55389236D01*
X82240907Y-55375708D01*
X85039198Y-58174000D01*
X84024248Y-58174000D01*
X83857501Y-58190423D01*
X83643553Y-58255324D01*
X83446377Y-58360716D01*
X83273551Y-58502551D01*
X83131716Y-58675377D01*
X83026324Y-58872553D01*
X82961423Y-59086501D01*
X82939509Y-59309000D01*
X82961423Y-59531499D01*
X83026324Y-59745447D01*
X83131716Y-59942623D01*
X83273551Y-60115449D01*
X83446377Y-60257284D01*
X83543132Y-60309000D01*
X83446377Y-60360716D01*
X83273551Y-60502551D01*
X83131716Y-60675377D01*
X83026324Y-60872553D01*
X82961423Y-61086501D01*
X82958812Y-61113011D01*
X82942989Y-61097187D01*
X82950000Y-61061939D01*
X82950000Y-60858061D01*
X82910226Y-60658102D01*
X82832205Y-60469744D01*
X82718937Y-60300226D01*
X82574774Y-60156063D01*
X82405256Y-60042795D01*
X82216898Y-59964774D01*
X82016939Y-59925000D01*
X81813061Y-59925000D01*
X81613102Y-59964774D01*
X81424744Y-60042795D01*
X81255226Y-60156063D01*
X81111063Y-60300226D01*
X80997795Y-60469744D01*
X80919774Y-60658102D01*
X80880000Y-60858061D01*
X80880000Y-61061939D01*
X80919774Y-61261898D01*
X80997795Y-61450256D01*
X81111063Y-61619774D01*
X81255226Y-61763937D01*
X81424744Y-61877205D01*
X81613102Y-61955226D01*
X81660940Y-61964742D01*
X82945399Y-63249200D01*
X82939509Y-63309000D01*
X82961423Y-63531499D01*
X83026324Y-63745447D01*
X83131716Y-63942623D01*
X83273551Y-64115449D01*
X83446377Y-64257284D01*
X83536527Y-64305470D01*
X83528322Y-64308997D01*
X83343831Y-64435839D01*
X83187631Y-64596236D01*
X83065724Y-64784024D01*
X82985881Y-65007126D01*
X83112046Y-65182000D01*
X84453000Y-65182000D01*
X84453000Y-65162000D01*
X84707000Y-65162000D01*
X84707000Y-65182000D01*
X86047954Y-65182000D01*
X86174119Y-65007126D01*
X86094276Y-64784024D01*
X85972369Y-64596236D01*
X85816169Y-64435839D01*
X85631678Y-64308997D01*
X85623473Y-64305470D01*
X85713623Y-64257284D01*
X85886449Y-64115449D01*
X86028284Y-63942623D01*
X86133676Y-63745447D01*
X86198577Y-63531499D01*
X86220491Y-63309000D01*
X86198577Y-63086501D01*
X86133676Y-62872553D01*
X86028284Y-62675377D01*
X85886449Y-62502551D01*
X85713623Y-62360716D01*
X85616868Y-62309000D01*
X85713623Y-62257284D01*
X85886449Y-62115449D01*
X86028284Y-61942623D01*
X86133676Y-61745447D01*
X86198577Y-61531499D01*
X86220491Y-61309000D01*
X86198577Y-61086501D01*
X86133676Y-60872553D01*
X86028284Y-60675377D01*
X85886449Y-60502551D01*
X85713623Y-60360716D01*
X85616868Y-60309000D01*
X85713623Y-60257284D01*
X85886449Y-60115449D01*
X86028284Y-59942623D01*
X86133676Y-59745447D01*
X86198577Y-59531499D01*
X86216340Y-59351142D01*
X88094203Y-61229005D01*
X88071487Y-61303889D01*
X88042815Y-61595000D01*
X88071487Y-61886111D01*
X88156401Y-62166034D01*
X88294294Y-62424014D01*
X88479866Y-62650134D01*
X88705986Y-62835706D01*
X88760791Y-62865000D01*
X88705986Y-62894294D01*
X88479866Y-63079866D01*
X88294294Y-63305986D01*
X88156401Y-63563966D01*
X88071487Y-63843889D01*
X88042815Y-64135000D01*
X88071487Y-64426111D01*
X88156401Y-64706034D01*
X88294294Y-64964014D01*
X88479866Y-65190134D01*
X88705986Y-65375706D01*
X88770523Y-65410201D01*
X88653645Y-65479822D01*
X88437412Y-65674731D01*
X88263359Y-65908080D01*
X88138175Y-66170901D01*
X88093524Y-66318110D01*
X88214845Y-66548000D01*
X89408000Y-66548000D01*
X89408000Y-66528000D01*
X89662000Y-66528000D01*
X89662000Y-66548000D01*
X90855155Y-66548000D01*
X90976476Y-66318110D01*
X90931825Y-66170901D01*
X90806641Y-65908080D01*
X90632588Y-65674731D01*
X90416355Y-65479822D01*
X90299477Y-65410201D01*
X90364014Y-65375706D01*
X90590134Y-65190134D01*
X90775706Y-64964014D01*
X90913599Y-64706034D01*
X90998513Y-64426111D01*
X91027185Y-64135000D01*
X90998513Y-63843889D01*
X90913599Y-63563966D01*
X90775706Y-63305986D01*
X90590134Y-63079866D01*
X90364014Y-62894294D01*
X90309209Y-62865000D01*
X90364014Y-62835706D01*
X90590134Y-62650134D01*
X90775706Y-62424014D01*
X90913599Y-62166034D01*
X90998513Y-61886111D01*
X91027185Y-61595000D01*
X90998513Y-61303889D01*
X90913599Y-61023966D01*
X90775706Y-60765986D01*
X90590134Y-60539866D01*
X90364014Y-60354294D01*
X90309209Y-60325000D01*
X90364014Y-60295706D01*
X90590134Y-60110134D01*
X90775706Y-59884014D01*
X90913599Y-59626034D01*
X90998513Y-59346111D01*
X91027185Y-59055000D01*
X90998513Y-58763889D01*
X90913599Y-58483966D01*
X90775706Y-58225986D01*
X90590134Y-57999866D01*
X90364014Y-57814294D01*
X90309209Y-57785000D01*
X90364014Y-57755706D01*
X90590134Y-57570134D01*
X90775706Y-57344014D01*
X90913599Y-57086034D01*
X90998513Y-56806111D01*
X91027185Y-56515000D01*
X90998513Y-56223889D01*
X90913599Y-55943966D01*
X90775706Y-55685986D01*
X90590134Y-55459866D01*
X90364014Y-55274294D01*
X90309209Y-55245000D01*
X90364014Y-55215706D01*
X90590134Y-55030134D01*
X90775706Y-54804014D01*
X90913599Y-54546034D01*
X90998513Y-54266111D01*
X91027185Y-53975000D01*
X90998513Y-53683889D01*
X90913599Y-53403966D01*
X90775706Y-53145986D01*
X90590134Y-52919866D01*
X90364014Y-52734294D01*
X90309209Y-52705000D01*
X90364014Y-52675706D01*
X90590134Y-52490134D01*
X90775706Y-52264014D01*
X90913599Y-52006034D01*
X90998513Y-51726111D01*
X91027185Y-51435000D01*
X90998513Y-51143889D01*
X90913599Y-50863966D01*
X90775706Y-50605986D01*
X90590134Y-50379866D01*
X90560313Y-50355393D01*
X90629180Y-50334502D01*
X90739494Y-50275537D01*
X90836185Y-50196185D01*
X90915537Y-50099494D01*
X90974502Y-49989180D01*
X91010812Y-49869482D01*
X91023072Y-49745000D01*
X91023072Y-48045000D01*
X91010812Y-47920518D01*
X90974502Y-47800820D01*
X90915537Y-47690506D01*
X90836185Y-47593815D01*
X90739494Y-47514463D01*
X90629180Y-47455498D01*
X90509482Y-47419188D01*
X90385000Y-47406928D01*
X88685000Y-47406928D01*
X88560518Y-47419188D01*
X88440820Y-47455498D01*
X88330506Y-47514463D01*
X88233815Y-47593815D01*
X88154463Y-47690506D01*
X88095498Y-47800820D01*
X88059188Y-47920518D01*
X88046928Y-48045000D01*
X88046928Y-48135000D01*
X82618711Y-48135000D01*
X82574774Y-48091063D01*
X82405256Y-47977795D01*
X82216898Y-47899774D01*
X82016939Y-47860000D01*
X81813061Y-47860000D01*
X81613102Y-47899774D01*
X81424744Y-47977795D01*
X81255226Y-48091063D01*
X81111063Y-48235226D01*
X80997795Y-48404744D01*
X80919774Y-48593102D01*
X80880000Y-48793061D01*
X80880000Y-48996939D01*
X80919774Y-49196898D01*
X80997795Y-49385256D01*
X81094510Y-49530000D01*
X80997795Y-49674744D01*
X80919774Y-49863102D01*
X80880000Y-50063061D01*
X80880000Y-50266939D01*
X80919774Y-50466898D01*
X80997795Y-50655256D01*
X81010987Y-50675000D01*
X76129801Y-50675000D01*
X79049094Y-47755708D01*
X79093691Y-47769236D01*
X79304508Y-47790000D01*
X79445492Y-47790000D01*
X79656309Y-47769236D01*
X79926808Y-47687182D01*
X80176101Y-47553932D01*
X80394608Y-47374608D01*
X80573932Y-47156101D01*
X80645000Y-47023142D01*
X80716068Y-47156101D01*
X80895392Y-47374608D01*
X81113899Y-47553932D01*
X81363192Y-47687182D01*
X81633691Y-47769236D01*
X81844508Y-47790000D01*
X81985492Y-47790000D01*
X82196309Y-47769236D01*
X82466808Y-47687182D01*
X82716101Y-47553932D01*
X82934608Y-47374608D01*
X83027419Y-47261518D01*
X83029188Y-47279482D01*
X83065498Y-47399180D01*
X83124463Y-47509494D01*
X83203815Y-47606185D01*
X83300506Y-47685537D01*
X83410820Y-47744502D01*
X83530518Y-47780812D01*
X83655000Y-47793072D01*
X84169250Y-47790000D01*
X84328000Y-47631250D01*
X84328000Y-46482000D01*
X84582000Y-46482000D01*
X84582000Y-47631250D01*
X84740750Y-47790000D01*
X85255000Y-47793072D01*
X85379482Y-47780812D01*
X85499180Y-47744502D01*
X85609494Y-47685537D01*
X85706185Y-47606185D01*
X85785537Y-47509494D01*
X85844502Y-47399180D01*
X85880812Y-47279482D01*
X85893072Y-47155000D01*
X85890000Y-46640750D01*
X85731250Y-46482000D01*
X84582000Y-46482000D01*
X84328000Y-46482000D01*
X84308000Y-46482000D01*
X84308000Y-46228000D01*
X84328000Y-46228000D01*
X84328000Y-45078750D01*
X84582000Y-45078750D01*
X84582000Y-46228000D01*
X85731250Y-46228000D01*
X85890000Y-46069250D01*
X85893072Y-45555000D01*
X85880812Y-45430518D01*
X85844502Y-45310820D01*
X85785537Y-45200506D01*
X85706185Y-45103815D01*
X85609494Y-45024463D01*
X85499180Y-44965498D01*
X85379482Y-44929188D01*
X85255000Y-44916928D01*
X84740750Y-44920000D01*
X84582000Y-45078750D01*
X84328000Y-45078750D01*
X84169250Y-44920000D01*
X83655000Y-44916928D01*
X83530518Y-44929188D01*
X83410820Y-44965498D01*
X83300506Y-45024463D01*
X83203815Y-45103815D01*
X83124463Y-45200506D01*
X83065498Y-45310820D01*
X83029188Y-45430518D01*
X83027419Y-45448482D01*
X82934608Y-45335392D01*
X82716101Y-45156068D01*
X82466808Y-45022818D01*
X82196309Y-44940764D01*
X81985492Y-44920000D01*
X81844508Y-44920000D01*
X81633691Y-44940764D01*
X81363192Y-45022818D01*
X81113899Y-45156068D01*
X80895392Y-45335392D01*
X80716068Y-45553899D01*
X80645000Y-45686858D01*
X80573932Y-45553899D01*
X80394608Y-45335392D01*
X80176101Y-45156068D01*
X79926808Y-45022818D01*
X79656309Y-44940764D01*
X79445492Y-44920000D01*
X79304508Y-44920000D01*
X79093691Y-44940764D01*
X78823192Y-45022818D01*
X78573899Y-45156068D01*
X78355392Y-45335392D01*
X78176068Y-45553899D01*
X78105000Y-45686858D01*
X78033932Y-45553899D01*
X77854608Y-45335392D01*
X77636101Y-45156068D01*
X77386808Y-45022818D01*
X77116309Y-44940764D01*
X76905492Y-44920000D01*
X76764508Y-44920000D01*
X76553691Y-44940764D01*
X76283192Y-45022818D01*
X76033899Y-45156068D01*
X75815392Y-45335392D01*
X75636068Y-45553899D01*
X75565000Y-45686858D01*
X75493932Y-45553899D01*
X75314608Y-45335392D01*
X75096101Y-45156068D01*
X74846808Y-45022818D01*
X74576309Y-44940764D01*
X74365492Y-44920000D01*
X74224508Y-44920000D01*
X74013691Y-44940764D01*
X73743192Y-45022818D01*
X73493899Y-45156068D01*
X73275392Y-45335392D01*
X73096068Y-45553899D01*
X73025000Y-45686858D01*
X72953932Y-45553899D01*
X72774608Y-45335392D01*
X72556101Y-45156068D01*
X72306808Y-45022818D01*
X72036309Y-44940764D01*
X71825492Y-44920000D01*
X71684508Y-44920000D01*
X71473691Y-44940764D01*
X71203192Y-45022818D01*
X70953899Y-45156068D01*
X70735392Y-45335392D01*
X70556068Y-45553899D01*
X70485000Y-45686858D01*
X70413932Y-45553899D01*
X70234608Y-45335392D01*
X70016101Y-45156068D01*
X69766808Y-45022818D01*
X69496309Y-44940764D01*
X69285492Y-44920000D01*
X69144508Y-44920000D01*
X68933691Y-44940764D01*
X68663192Y-45022818D01*
X68413899Y-45156068D01*
X68195392Y-45335392D01*
X68016068Y-45553899D01*
X67882818Y-45803192D01*
X67800764Y-46073691D01*
X67773057Y-46355000D01*
X67800764Y-46636309D01*
X67814292Y-46680906D01*
X66743988Y-47751211D01*
X66714990Y-47775009D01*
X66691192Y-47804007D01*
X66691191Y-47804008D01*
X66620016Y-47890734D01*
X66549444Y-48022764D01*
X66528727Y-48091063D01*
X66505988Y-48166024D01*
X66494991Y-48277677D01*
X66491314Y-48315010D01*
X58953072Y-48315010D01*
X58953072Y-44964000D01*
X58940812Y-44839518D01*
X58904502Y-44719820D01*
X58845537Y-44609506D01*
X58766185Y-44512815D01*
X58669494Y-44433463D01*
X58559180Y-44374498D01*
X58439482Y-44338188D01*
X58315000Y-44325928D01*
X54715000Y-44325928D01*
X54590518Y-44338188D01*
X54470820Y-44374498D01*
X54360506Y-44433463D01*
X54263815Y-44512815D01*
X54184463Y-44609506D01*
X54125498Y-44719820D01*
X54089188Y-44839518D01*
X54076928Y-44964000D01*
X46482000Y-44964000D01*
X46482000Y-43942000D01*
X91313000Y-43942000D01*
X91313000Y-77978000D01*
M02*
