M48
; DRILL file {KiCad 5.1.4} date Mo 02 Sep 2019 21:27:11 CEST
; FORMAT={-:-/ absolute / inch / decimal}
; #@! TF.CreationDate,2019-09-02T21:27:11+02:00
; #@! TF.GenerationSoftware,Kicad,Pcbnew,5.1.4
; #@! TF.FileFunction,Plated,1,2,PTH
FMAT,2
INCH
T1C0.0157
T2C0.0315
T3C0.0394
%
G90
G05
T1
X2.225Y-2.075
X2.75Y-2.35
X2.75Y-2.9
X2.825Y-1.975
X2.925Y-1.925
X3.225Y-1.925
X3.225Y-1.975
X3.225Y-2.4
X3.275Y-2.825
T2
X2.725Y-1.825
X2.725Y-2.125
X2.825Y-1.825
X2.825Y-2.125
X2.925Y-1.825
X2.925Y-2.125
X3.025Y-1.825
X3.025Y-2.125
X3.125Y-1.825
X3.125Y-2.125
X3.225Y-1.825
X3.225Y-2.125
X3.325Y-1.825
X3.325Y-2.125
T3
X3.525Y-1.925
X3.525Y-2.025
X3.525Y-2.125
X3.525Y-2.225
X3.525Y-2.325
X3.525Y-2.425
X3.525Y-2.525
X3.525Y-2.625
X3.525Y-2.885
T0
M30
