G04 #@! TF.GenerationSoftware,KiCad,Pcbnew,5.1.4*
G04 #@! TF.CreationDate,2019-09-02T21:27:03+02:00*
G04 #@! TF.ProjectId,LORA_ATTINY84,4c4f5241-5f41-4545-9449-4e5938342e6b,rev?*
G04 #@! TF.SameCoordinates,Original*
G04 #@! TF.FileFunction,Legend,Top*
G04 #@! TF.FilePolarity,Positive*
%FSLAX46Y46*%
G04 Gerber Fmt 4.6, Leading zero omitted, Abs format (unit mm)*
G04 Created by KiCad (PCBNEW 5.1.4) date 2019-09-02 21:27:03*
%MOMM*%
%LPD*%
G04 APERTURE LIST*
%ADD10C,0.150000*%
%ADD11C,0.120000*%
%ADD12C,0.200000*%
G04 APERTURE END LIST*
D10*
X70811190Y-75652380D02*
X71382619Y-75652380D01*
X71096904Y-76652380D02*
X71096904Y-75652380D01*
X71715952Y-76652380D02*
X71715952Y-75985714D01*
X71715952Y-75652380D02*
X71668333Y-75700000D01*
X71715952Y-75747619D01*
X71763571Y-75700000D01*
X71715952Y-75652380D01*
X71715952Y-75747619D01*
X72192142Y-75985714D02*
X72192142Y-76652380D01*
X72192142Y-76080952D02*
X72239761Y-76033333D01*
X72335000Y-75985714D01*
X72477857Y-75985714D01*
X72573095Y-76033333D01*
X72620714Y-76128571D01*
X72620714Y-76652380D01*
X73001666Y-75985714D02*
X73239761Y-76652380D01*
X73477857Y-75985714D02*
X73239761Y-76652380D01*
X73144523Y-76890476D01*
X73096904Y-76938095D01*
X73001666Y-76985714D01*
X74335000Y-76652380D02*
X73858809Y-76652380D01*
X73858809Y-75652380D01*
X74811190Y-76652380D02*
X74715952Y-76604761D01*
X74668333Y-76557142D01*
X74620714Y-76461904D01*
X74620714Y-76176190D01*
X74668333Y-76080952D01*
X74715952Y-76033333D01*
X74811190Y-75985714D01*
X74954047Y-75985714D01*
X75049285Y-76033333D01*
X75096904Y-76080952D01*
X75144523Y-76176190D01*
X75144523Y-76461904D01*
X75096904Y-76557142D01*
X75049285Y-76604761D01*
X74954047Y-76652380D01*
X74811190Y-76652380D01*
X75573095Y-76652380D02*
X75573095Y-75985714D01*
X75573095Y-76176190D02*
X75620714Y-76080952D01*
X75668333Y-76033333D01*
X75763571Y-75985714D01*
X75858809Y-75985714D01*
X76620714Y-76652380D02*
X76620714Y-76128571D01*
X76573095Y-76033333D01*
X76477857Y-75985714D01*
X76287380Y-75985714D01*
X76192142Y-76033333D01*
X76620714Y-76604761D02*
X76525476Y-76652380D01*
X76287380Y-76652380D01*
X76192142Y-76604761D01*
X76144523Y-76509523D01*
X76144523Y-76414285D01*
X76192142Y-76319047D01*
X76287380Y-76271428D01*
X76525476Y-76271428D01*
X76620714Y-76223809D01*
X77096904Y-76271428D02*
X77858809Y-76271428D01*
X78335000Y-76652380D02*
X78335000Y-75652380D01*
X78573095Y-75652380D01*
X78715952Y-75700000D01*
X78811190Y-75795238D01*
X78858809Y-75890476D01*
X78906428Y-76080952D01*
X78906428Y-76223809D01*
X78858809Y-76414285D01*
X78811190Y-76509523D01*
X78715952Y-76604761D01*
X78573095Y-76652380D01*
X78335000Y-76652380D01*
X79335000Y-76652380D02*
X79335000Y-75652380D01*
X80287380Y-76652380D02*
X79811190Y-76652380D01*
X79811190Y-75652380D01*
X81239761Y-75652380D02*
X81573095Y-76652380D01*
X81906428Y-75652380D01*
X82763571Y-76652380D02*
X82192142Y-76652380D01*
X82477857Y-76652380D02*
X82477857Y-75652380D01*
X82382619Y-75795238D01*
X82287380Y-75890476D01*
X82192142Y-75938095D01*
D11*
X60365000Y-49610000D02*
X60365000Y-46410000D01*
X60365000Y-46410000D02*
X58815000Y-46410000D01*
X64865000Y-49610000D02*
X60365000Y-49610000D01*
X64865000Y-49610000D02*
X64865000Y-70510000D01*
X63065000Y-72310000D02*
X60365000Y-72310000D01*
X64865000Y-70510000D02*
X63065000Y-72310000D01*
X60365000Y-72310000D02*
X60365000Y-75510000D01*
X60365000Y-75510000D02*
X58815000Y-75510000D01*
X52665000Y-72310000D02*
X52665000Y-75510000D01*
X52665000Y-75510000D02*
X54215000Y-75510000D01*
X52665000Y-49610000D02*
X52665000Y-46410000D01*
X52665000Y-46410000D02*
X54215000Y-46410000D01*
X48165000Y-72310000D02*
X48165000Y-49610000D01*
X48165000Y-72310000D02*
X52665000Y-72310000D01*
X48165000Y-49610000D02*
X52665000Y-49610000D01*
X61515000Y-73960000D02*
X63515000Y-73960000D01*
X62515000Y-72960000D02*
X62515000Y-74960000D01*
X88205000Y-50165000D02*
X90865000Y-50165000D01*
X88205000Y-50165000D02*
X88205000Y-68005000D01*
X88205000Y-68005000D02*
X90865000Y-68005000D01*
X90865000Y-50165000D02*
X90865000Y-68005000D01*
X90865000Y-47565000D02*
X90865000Y-48895000D01*
X89535000Y-47565000D02*
X90865000Y-47565000D01*
X85845000Y-55305000D02*
X85845000Y-45025000D01*
X67825000Y-55305000D02*
X85845000Y-55305000D01*
X67825000Y-45025000D02*
X67825000Y-55305000D01*
X85845000Y-45025000D02*
X67825000Y-45025000D01*
X85785000Y-52815000D02*
X85785000Y-51165000D01*
X67885000Y-52815000D02*
X85785000Y-52815000D01*
X67885000Y-47515000D02*
X67885000Y-52815000D01*
X85785000Y-47515000D02*
X67885000Y-47515000D01*
X85785000Y-49165000D02*
X85785000Y-47515000D01*
X85785000Y-51165000D02*
G75*
G02X85785000Y-49165000I0J1000000D01*
G01*
D12*
X68580000Y-58309000D02*
X84580000Y-58309000D01*
X68580000Y-70109000D02*
X68580000Y-70509000D01*
X68580000Y-68109000D02*
X68580000Y-68509000D01*
X68580000Y-66109000D02*
X68580000Y-66509000D01*
X68580000Y-64109000D02*
X68580000Y-64509000D01*
X68580000Y-62509000D02*
X68580000Y-62109000D01*
X68580000Y-60509000D02*
X68580000Y-60109000D01*
X67580000Y-58509000D02*
X68580000Y-58509000D01*
X68580000Y-58509000D02*
X68580000Y-58309000D01*
X68580000Y-72109000D02*
X68580000Y-72509000D01*
X84580000Y-58309000D02*
X84580000Y-58509000D01*
X84580000Y-60109000D02*
X84580000Y-60509000D01*
X84580000Y-62109000D02*
X84580000Y-62509000D01*
X84580000Y-64109000D02*
X84580000Y-64509000D01*
X84580000Y-66109000D02*
X84580000Y-66509000D01*
X84580000Y-68109000D02*
X84580000Y-68509000D01*
X84580000Y-70109000D02*
X84580000Y-70509000D01*
X84580000Y-72109000D02*
X84580000Y-72509000D01*
X84580000Y-74109000D02*
X84580000Y-74309000D01*
X84580000Y-74309000D02*
X68580000Y-74309000D01*
X68580000Y-74309000D02*
X68580000Y-74109000D01*
D11*
X90865000Y-74609000D02*
X89535000Y-74609000D01*
X90865000Y-73279000D02*
X90865000Y-74609000D01*
X90865000Y-72009000D02*
X88205000Y-72009000D01*
X88205000Y-72009000D02*
X88205000Y-71949000D01*
X90865000Y-72009000D02*
X90865000Y-71949000D01*
X90865000Y-71949000D02*
X88205000Y-71949000D01*
D10*
X51143571Y-75870714D02*
X51191190Y-75727857D01*
X51238809Y-75680238D01*
X51334047Y-75632619D01*
X51476904Y-75632619D01*
X51572142Y-75680238D01*
X51619761Y-75727857D01*
X51667380Y-75823095D01*
X51667380Y-76204047D01*
X50667380Y-76204047D01*
X50667380Y-75870714D01*
X50715000Y-75775476D01*
X50762619Y-75727857D01*
X50857857Y-75680238D01*
X50953095Y-75680238D01*
X51048333Y-75727857D01*
X51095952Y-75775476D01*
X51143571Y-75870714D01*
X51143571Y-76204047D01*
X50667380Y-75346904D02*
X50667380Y-74775476D01*
X51667380Y-75061190D02*
X50667380Y-75061190D01*
X51667380Y-73918333D02*
X51667380Y-74489761D01*
X51667380Y-74204047D02*
X50667380Y-74204047D01*
X50810238Y-74299285D01*
X50905476Y-74394523D01*
X50953095Y-74489761D01*
X89201666Y-45577380D02*
X89201666Y-46291666D01*
X89154047Y-46434523D01*
X89058809Y-46529761D01*
X88915952Y-46577380D01*
X88820714Y-46577380D01*
X90201666Y-46577380D02*
X89630238Y-46577380D01*
X89915952Y-46577380D02*
X89915952Y-45577380D01*
X89820714Y-45720238D01*
X89725476Y-45815476D01*
X89630238Y-45863095D01*
X76073095Y-49617380D02*
X76073095Y-50426904D01*
X76120714Y-50522142D01*
X76168333Y-50569761D01*
X76263571Y-50617380D01*
X76454047Y-50617380D01*
X76549285Y-50569761D01*
X76596904Y-50522142D01*
X76644523Y-50426904D01*
X76644523Y-49617380D01*
X77644523Y-50617380D02*
X77073095Y-50617380D01*
X77358809Y-50617380D02*
X77358809Y-49617380D01*
X77263571Y-49760238D01*
X77168333Y-49855476D01*
X77073095Y-49903095D01*
X76073095Y-66762380D02*
X76073095Y-67571904D01*
X76120714Y-67667142D01*
X76168333Y-67714761D01*
X76263571Y-67762380D01*
X76454047Y-67762380D01*
X76549285Y-67714761D01*
X76596904Y-67667142D01*
X76644523Y-67571904D01*
X76644523Y-66762380D01*
X77073095Y-66857619D02*
X77120714Y-66810000D01*
X77215952Y-66762380D01*
X77454047Y-66762380D01*
X77549285Y-66810000D01*
X77596904Y-66857619D01*
X77644523Y-66952857D01*
X77644523Y-67048095D01*
X77596904Y-67190952D01*
X77025476Y-67762380D01*
X77644523Y-67762380D01*
X88368333Y-75775666D02*
X88844523Y-75775666D01*
X88273095Y-76061380D02*
X88606428Y-75061380D01*
X88939761Y-76061380D01*
X89273095Y-75537571D02*
X89606428Y-75537571D01*
X89749285Y-76061380D02*
X89273095Y-76061380D01*
X89273095Y-75061380D01*
X89749285Y-75061380D01*
X90701666Y-76061380D02*
X90130238Y-76061380D01*
X90415952Y-76061380D02*
X90415952Y-75061380D01*
X90320714Y-75204238D01*
X90225476Y-75299476D01*
X90130238Y-75347095D01*
M02*
